<svg xmlns="http://www.w3.org/2000/svg" version="1.1" xmlns:xlink="http://www.w3.org/1999/xlink" xmlns:svgjs="http://svgjs.dev/svgjs" viewBox="0 0 800 800"><defs><linearGradient gradientTransform="rotate(270)" x1="50%" y1="0%" x2="50%" y2="100%" id="sssquiggly-grad"><stop stop-color="hsla(206, 6%, 25%, 1.00)" stop-opacity="1" offset="0%"></stop><stop stop-color="hsla(212, 57%, 51%, 1.00)" stop-opacity="1" offset="100%"></stop></linearGradient></defs><g stroke-width="2.5" stroke="url(#sssquiggly-grad)" fill="none" stroke-linecap="round" transform="matrix(1,0,0,1,0,-696.5095748901367)"><path d="M10,10C21.805555555555557,12.916666666666668,40.97222222222223,27.541666666666668,66.66666666666667,24C92.36111111111111,20.458333333333332,105.55555555555557,-9.5,133.33333333333334,-7C161.11111111111111,-4.5,172.22222222222223,40.791666666666664,200,36C227.77777777777777,31.208333333333332,238.8888888888889,-27.083333333333332,266.6666666666667,-30C294.44444444444446,-32.916666666666664,305.5555555555556,18.458333333333332,333.33333333333337,22C361.11111111111114,25.541666666666668,372.22222222222223,-18.833333333333336,400,-13C427.77777777777777,-7.166666666666666,438.8888888888889,46.875,466.6666666666667,50C494.44444444444446,53.125,505.5555555555556,2.4166666666666665,533.3333333333334,2C561.1111111111111,1.5833333333333335,572.2222222222222,47.583333333333336,600,48C627.7777777777778,48.416666666666664,638.8888888888889,5.25,666.6666666666667,4C694.4444444444446,2.75,707.6388888888889,40.75,733.3333333333334,42C759.0277777777778,43.25,778.1944444444445,16.666666666666664,790,10"></path><path d="M10,10C21.805555555555557,12.916666666666668,40.97222222222223,27.541666666666668,66.66666666666667,24C92.36111111111111,20.458333333333332,105.55555555555557,-9.5,133.33333333333334,-7C161.11111111111111,-4.5,172.22222222222223,40.791666666666664,200,36C227.77777777777777,31.208333333333332,238.8888888888889,-27.083333333333332,266.6666666666667,-30C294.44444444444446,-32.916666666666664,305.5555555555556,18.458333333333332,333.33333333333337,22C361.11111111111114,25.541666666666668,372.22222222222223,-18.833333333333336,400,-13C427.77777777777777,-7.166666666666666,438.8888888888889,46.875,466.6666666666667,50C494.44444444444446,53.125,505.5555555555556,2.4166666666666665,533.3333333333334,2C561.1111111111111,1.5833333333333335,572.2222222222222,47.583333333333336,600,48C627.7777777777778,48.416666666666664,638.8888888888889,5.25,666.6666666666667,4C694.4444444444446,2.75,707.6388888888889,40.75,733.3333333333334,42C759.0277777777778,43.25,778.1944444444445,16.666666666666664,790,10" transform="matrix(1,0,0,1,0,2173)"></path><path d="M10,10C21.805555555555557,12.916666666666668,40.97222222222223,27.541666666666668,66.66666666666667,24C92.36111111111111,20.458333333333332,105.55555555555557,-9.5,133.33333333333334,-7C161.11111111111111,-4.5,172.22222222222223,40.791666666666664,200,36C227.77777777777777,31.208333333333332,238.8888888888889,-27.083333333333332,266.6666666666667,-30C294.44444444444446,-32.916666666666664,305.5555555555556,18.458333333333332,333.33333333333337,22C361.11111111111114,25.541666666666668,372.22222222222223,-18.833333333333336,400,-13C427.77777777777777,-7.166666666666666,438.8888888888889,46.875,466.6666666666667,50C494.44444444444446,53.125,505.5555555555556,2.4166666666666665,533.3333333333334,2C561.1111111111111,1.5833333333333335,572.2222222222222,47.583333333333336,600,48C627.7777777777778,48.416666666666664,638.8888888888889,5.25,666.6666666666667,4C694.4444444444446,2.75,707.6388888888889,40.75,733.3333333333334,42C759.0277777777778,43.25,778.1944444444445,16.666666666666664,790,10" transform="matrix(1,0,0,1,0,2132)"></path><path d="M10,10C21.805555555555557,12.916666666666668,40.97222222222223,27.541666666666668,66.66666666666667,24C92.36111111111111,20.458333333333332,105.55555555555557,-9.5,133.33333333333334,-7C161.11111111111111,-4.5,172.22222222222223,40.791666666666664,200,36C227.77777777777777,31.208333333333332,238.8888888888889,-27.083333333333332,266.6666666666667,-30C294.44444444444446,-32.916666666666664,305.5555555555556,18.458333333333332,333.33333333333337,22C361.11111111111114,25.541666666666668,372.22222222222223,-18.833333333333336,400,-13C427.77777777777777,-7.166666666666666,438.8888888888889,46.875,466.6666666666667,50C494.44444444444446,53.125,505.5555555555556,2.4166666666666665,533.3333333333334,2C561.1111111111111,1.5833333333333335,572.2222222222222,47.583333333333336,600,48C627.7777777777778,48.416666666666664,638.8888888888889,5.25,666.6666666666667,4C694.4444444444446,2.75,707.6388888888889,40.75,733.3333333333334,42C759.0277777777778,43.25,778.1944444444445,16.666666666666664,790,10" transform="matrix(1,0,0,1,0,2091)"></path><path d="M10,10C21.805555555555557,12.916666666666668,40.97222222222223,27.541666666666668,66.66666666666667,24C92.36111111111111,20.458333333333332,105.55555555555557,-9.5,133.33333333333334,-7C161.11111111111111,-4.5,172.22222222222223,40.791666666666664,200,36C227.77777777777777,31.208333333333332,238.8888888888889,-27.083333333333332,266.6666666666667,-30C294.44444444444446,-32.916666666666664,305.5555555555556,18.458333333333332,333.33333333333337,22C361.11111111111114,25.541666666666668,372.22222222222223,-18.833333333333336,400,-13C427.77777777777777,-7.166666666666666,438.8888888888889,46.875,466.6666666666667,50C494.44444444444446,53.125,505.5555555555556,2.4166666666666665,533.3333333333334,2C561.1111111111111,1.5833333333333335,572.2222222222222,47.583333333333336,600,48C627.7777777777778,48.416666666666664,638.8888888888889,5.25,666.6666666666667,4C694.4444444444446,2.75,707.6388888888889,40.75,733.3333333333334,42C759.0277777777778,43.25,778.1944444444445,16.666666666666664,790,10" transform="matrix(1,0,0,1,0,2050)"></path><path d="M10,10C21.805555555555557,12.916666666666668,40.97222222222223,27.541666666666668,66.66666666666667,24C92.36111111111111,20.458333333333332,105.55555555555557,-9.5,133.33333333333334,-7C161.11111111111111,-4.5,172.22222222222223,40.791666666666664,200,36C227.77777777777777,31.208333333333332,238.8888888888889,-27.083333333333332,266.6666666666667,-30C294.44444444444446,-32.916666666666664,305.5555555555556,18.458333333333332,333.33333333333337,22C361.11111111111114,25.541666666666668,372.22222222222223,-18.833333333333336,400,-13C427.77777777777777,-7.166666666666666,438.8888888888889,46.875,466.6666666666667,50C494.44444444444446,53.125,505.5555555555556,2.4166666666666665,533.3333333333334,2C561.1111111111111,1.5833333333333335,572.2222222222222,47.583333333333336,600,48C627.7777777777778,48.416666666666664,638.8888888888889,5.25,666.6666666666667,4C694.4444444444446,2.75,707.6388888888889,40.75,733.3333333333334,42C759.0277777777778,43.25,778.1944444444445,16.666666666666664,790,10" transform="matrix(1,0,0,1,0,2009)"></path><path d="M10,10C21.805555555555557,12.916666666666668,40.97222222222223,27.541666666666668,66.66666666666667,24C92.36111111111111,20.458333333333332,105.55555555555557,-9.5,133.33333333333334,-7C161.11111111111111,-4.5,172.22222222222223,40.791666666666664,200,36C227.77777777777777,31.208333333333332,238.8888888888889,-27.083333333333332,266.6666666666667,-30C294.44444444444446,-32.916666666666664,305.5555555555556,18.458333333333332,333.33333333333337,22C361.11111111111114,25.541666666666668,372.22222222222223,-18.833333333333336,400,-13C427.77777777777777,-7.166666666666666,438.8888888888889,46.875,466.6666666666667,50C494.44444444444446,53.125,505.5555555555556,2.4166666666666665,533.3333333333334,2C561.1111111111111,1.5833333333333335,572.2222222222222,47.583333333333336,600,48C627.7777777777778,48.416666666666664,638.8888888888889,5.25,666.6666666666667,4C694.4444444444446,2.75,707.6388888888889,40.75,733.3333333333334,42C759.0277777777778,43.25,778.1944444444445,16.666666666666664,790,10" transform="matrix(1,0,0,1,0,1968)"></path><path d="M10,10C21.805555555555557,12.916666666666668,40.97222222222223,27.541666666666668,66.66666666666667,24C92.36111111111111,20.458333333333332,105.55555555555557,-9.5,133.33333333333334,-7C161.11111111111111,-4.5,172.22222222222223,40.791666666666664,200,36C227.77777777777777,31.208333333333332,238.8888888888889,-27.083333333333332,266.6666666666667,-30C294.44444444444446,-32.916666666666664,305.5555555555556,18.458333333333332,333.33333333333337,22C361.11111111111114,25.541666666666668,372.22222222222223,-18.833333333333336,400,-13C427.77777777777777,-7.166666666666666,438.8888888888889,46.875,466.6666666666667,50C494.44444444444446,53.125,505.5555555555556,2.4166666666666665,533.3333333333334,2C561.1111111111111,1.5833333333333335,572.2222222222222,47.583333333333336,600,48C627.7777777777778,48.416666666666664,638.8888888888889,5.25,666.6666666666667,4C694.4444444444446,2.75,707.6388888888889,40.75,733.3333333333334,42C759.0277777777778,43.25,778.1944444444445,16.666666666666664,790,10" transform="matrix(1,0,0,1,0,1927)"></path><path d="M10,10C21.805555555555557,12.916666666666668,40.97222222222223,27.541666666666668,66.66666666666667,24C92.36111111111111,20.458333333333332,105.55555555555557,-9.5,133.33333333333334,-7C161.11111111111111,-4.5,172.22222222222223,40.791666666666664,200,36C227.77777777777777,31.208333333333332,238.8888888888889,-27.083333333333332,266.6666666666667,-30C294.44444444444446,-32.916666666666664,305.5555555555556,18.458333333333332,333.33333333333337,22C361.11111111111114,25.541666666666668,372.22222222222223,-18.833333333333336,400,-13C427.77777777777777,-7.166666666666666,438.8888888888889,46.875,466.6666666666667,50C494.44444444444446,53.125,505.5555555555556,2.4166666666666665,533.3333333333334,2C561.1111111111111,1.5833333333333335,572.2222222222222,47.583333333333336,600,48C627.7777777777778,48.416666666666664,638.8888888888889,5.25,666.6666666666667,4C694.4444444444446,2.75,707.6388888888889,40.75,733.3333333333334,42C759.0277777777778,43.25,778.1944444444445,16.666666666666664,790,10" transform="matrix(1,0,0,1,0,1886)"></path><path d="M10,10C21.805555555555557,12.916666666666668,40.97222222222223,27.541666666666668,66.66666666666667,24C92.36111111111111,20.458333333333332,105.55555555555557,-9.5,133.33333333333334,-7C161.11111111111111,-4.5,172.22222222222223,40.791666666666664,200,36C227.77777777777777,31.208333333333332,238.8888888888889,-27.083333333333332,266.6666666666667,-30C294.44444444444446,-32.916666666666664,305.5555555555556,18.458333333333332,333.33333333333337,22C361.11111111111114,25.541666666666668,372.22222222222223,-18.833333333333336,400,-13C427.77777777777777,-7.166666666666666,438.8888888888889,46.875,466.6666666666667,50C494.44444444444446,53.125,505.5555555555556,2.4166666666666665,533.3333333333334,2C561.1111111111111,1.5833333333333335,572.2222222222222,47.583333333333336,600,48C627.7777777777778,48.416666666666664,638.8888888888889,5.25,666.6666666666667,4C694.4444444444446,2.75,707.6388888888889,40.75,733.3333333333334,42C759.0277777777778,43.25,778.1944444444445,16.666666666666664,790,10" transform="matrix(1,0,0,1,0,1845)"></path><path d="M10,10C21.805555555555557,12.916666666666668,40.97222222222223,27.541666666666668,66.66666666666667,24C92.36111111111111,20.458333333333332,105.55555555555557,-9.5,133.33333333333334,-7C161.11111111111111,-4.5,172.22222222222223,40.791666666666664,200,36C227.77777777777777,31.208333333333332,238.8888888888889,-27.083333333333332,266.6666666666667,-30C294.44444444444446,-32.916666666666664,305.5555555555556,18.458333333333332,333.33333333333337,22C361.11111111111114,25.541666666666668,372.22222222222223,-18.833333333333336,400,-13C427.77777777777777,-7.166666666666666,438.8888888888889,46.875,466.6666666666667,50C494.44444444444446,53.125,505.5555555555556,2.4166666666666665,533.3333333333334,2C561.1111111111111,1.5833333333333335,572.2222222222222,47.583333333333336,600,48C627.7777777777778,48.416666666666664,638.8888888888889,5.25,666.6666666666667,4C694.4444444444446,2.75,707.6388888888889,40.75,733.3333333333334,42C759.0277777777778,43.25,778.1944444444445,16.666666666666664,790,10" transform="matrix(1,0,0,1,0,1804)"></path><path d="M10,10C21.805555555555557,12.916666666666668,40.97222222222223,27.541666666666668,66.66666666666667,24C92.36111111111111,20.458333333333332,105.55555555555557,-9.5,133.33333333333334,-7C161.11111111111111,-4.5,172.22222222222223,40.791666666666664,200,36C227.77777777777777,31.208333333333332,238.8888888888889,-27.083333333333332,266.6666666666667,-30C294.44444444444446,-32.916666666666664,305.5555555555556,18.458333333333332,333.33333333333337,22C361.11111111111114,25.541666666666668,372.22222222222223,-18.833333333333336,400,-13C427.77777777777777,-7.166666666666666,438.8888888888889,46.875,466.6666666666667,50C494.44444444444446,53.125,505.5555555555556,2.4166666666666665,533.3333333333334,2C561.1111111111111,1.5833333333333335,572.2222222222222,47.583333333333336,600,48C627.7777777777778,48.416666666666664,638.8888888888889,5.25,666.6666666666667,4C694.4444444444446,2.75,707.6388888888889,40.75,733.3333333333334,42C759.0277777777778,43.25,778.1944444444445,16.666666666666664,790,10" transform="matrix(1,0,0,1,0,1763)"></path><path d="M10,10C21.805555555555557,12.916666666666668,40.97222222222223,27.541666666666668,66.66666666666667,24C92.36111111111111,20.458333333333332,105.55555555555557,-9.5,133.33333333333334,-7C161.11111111111111,-4.5,172.22222222222223,40.791666666666664,200,36C227.77777777777777,31.208333333333332,238.8888888888889,-27.083333333333332,266.6666666666667,-30C294.44444444444446,-32.916666666666664,305.5555555555556,18.458333333333332,333.33333333333337,22C361.11111111111114,25.541666666666668,372.22222222222223,-18.833333333333336,400,-13C427.77777777777777,-7.166666666666666,438.8888888888889,46.875,466.6666666666667,50C494.44444444444446,53.125,505.5555555555556,2.4166666666666665,533.3333333333334,2C561.1111111111111,1.5833333333333335,572.2222222222222,47.583333333333336,600,48C627.7777777777778,48.416666666666664,638.8888888888889,5.25,666.6666666666667,4C694.4444444444446,2.75,707.6388888888889,40.75,733.3333333333334,42C759.0277777777778,43.25,778.1944444444445,16.666666666666664,790,10" transform="matrix(1,0,0,1,0,1722)"></path><path d="M10,10C21.805555555555557,12.916666666666668,40.97222222222223,27.541666666666668,66.66666666666667,24C92.36111111111111,20.458333333333332,105.55555555555557,-9.5,133.33333333333334,-7C161.11111111111111,-4.5,172.22222222222223,40.791666666666664,200,36C227.77777777777777,31.208333333333332,238.8888888888889,-27.083333333333332,266.6666666666667,-30C294.44444444444446,-32.916666666666664,305.5555555555556,18.458333333333332,333.33333333333337,22C361.11111111111114,25.541666666666668,372.22222222222223,-18.833333333333336,400,-13C427.77777777777777,-7.166666666666666,438.8888888888889,46.875,466.6666666666667,50C494.44444444444446,53.125,505.5555555555556,2.4166666666666665,533.3333333333334,2C561.1111111111111,1.5833333333333335,572.2222222222222,47.583333333333336,600,48C627.7777777777778,48.416666666666664,638.8888888888889,5.25,666.6666666666667,4C694.4444444444446,2.75,707.6388888888889,40.75,733.3333333333334,42C759.0277777777778,43.25,778.1944444444445,16.666666666666664,790,10" transform="matrix(1,0,0,1,0,1681)"></path><path d="M10,10C21.805555555555557,12.916666666666668,40.97222222222223,27.541666666666668,66.66666666666667,24C92.36111111111111,20.458333333333332,105.55555555555557,-9.5,133.33333333333334,-7C161.11111111111111,-4.5,172.22222222222223,40.791666666666664,200,36C227.77777777777777,31.208333333333332,238.8888888888889,-27.083333333333332,266.6666666666667,-30C294.44444444444446,-32.916666666666664,305.5555555555556,18.458333333333332,333.33333333333337,22C361.11111111111114,25.541666666666668,372.22222222222223,-18.833333333333336,400,-13C427.77777777777777,-7.166666666666666,438.8888888888889,46.875,466.6666666666667,50C494.44444444444446,53.125,505.5555555555556,2.4166666666666665,533.3333333333334,2C561.1111111111111,1.5833333333333335,572.2222222222222,47.583333333333336,600,48C627.7777777777778,48.416666666666664,638.8888888888889,5.25,666.6666666666667,4C694.4444444444446,2.75,707.6388888888889,40.75,733.3333333333334,42C759.0277777777778,43.25,778.1944444444445,16.666666666666664,790,10" transform="matrix(1,0,0,1,0,1640)"></path><path d="M10,10C21.805555555555557,12.916666666666668,40.97222222222223,27.541666666666668,66.66666666666667,24C92.36111111111111,20.458333333333332,105.55555555555557,-9.5,133.33333333333334,-7C161.11111111111111,-4.5,172.22222222222223,40.791666666666664,200,36C227.77777777777777,31.208333333333332,238.8888888888889,-27.083333333333332,266.6666666666667,-30C294.44444444444446,-32.916666666666664,305.5555555555556,18.458333333333332,333.33333333333337,22C361.11111111111114,25.541666666666668,372.22222222222223,-18.833333333333336,400,-13C427.77777777777777,-7.166666666666666,438.8888888888889,46.875,466.6666666666667,50C494.44444444444446,53.125,505.5555555555556,2.4166666666666665,533.3333333333334,2C561.1111111111111,1.5833333333333335,572.2222222222222,47.583333333333336,600,48C627.7777777777778,48.416666666666664,638.8888888888889,5.25,666.6666666666667,4C694.4444444444446,2.75,707.6388888888889,40.75,733.3333333333334,42C759.0277777777778,43.25,778.1944444444445,16.666666666666664,790,10" transform="matrix(1,0,0,1,0,1599)"></path><path d="M10,10C21.805555555555557,12.916666666666668,40.97222222222223,27.541666666666668,66.66666666666667,24C92.36111111111111,20.458333333333332,105.55555555555557,-9.5,133.33333333333334,-7C161.11111111111111,-4.5,172.22222222222223,40.791666666666664,200,36C227.77777777777777,31.208333333333332,238.8888888888889,-27.083333333333332,266.6666666666667,-30C294.44444444444446,-32.916666666666664,305.5555555555556,18.458333333333332,333.33333333333337,22C361.11111111111114,25.541666666666668,372.22222222222223,-18.833333333333336,400,-13C427.77777777777777,-7.166666666666666,438.8888888888889,46.875,466.6666666666667,50C494.44444444444446,53.125,505.5555555555556,2.4166666666666665,533.3333333333334,2C561.1111111111111,1.5833333333333335,572.2222222222222,47.583333333333336,600,48C627.7777777777778,48.416666666666664,638.8888888888889,5.25,666.6666666666667,4C694.4444444444446,2.75,707.6388888888889,40.75,733.3333333333334,42C759.0277777777778,43.25,778.1944444444445,16.666666666666664,790,10" transform="matrix(1,0,0,1,0,1558)"></path><path d="M10,10C21.805555555555557,12.916666666666668,40.97222222222223,27.541666666666668,66.66666666666667,24C92.36111111111111,20.458333333333332,105.55555555555557,-9.5,133.33333333333334,-7C161.11111111111111,-4.5,172.22222222222223,40.791666666666664,200,36C227.77777777777777,31.208333333333332,238.8888888888889,-27.083333333333332,266.6666666666667,-30C294.44444444444446,-32.916666666666664,305.5555555555556,18.458333333333332,333.33333333333337,22C361.11111111111114,25.541666666666668,372.22222222222223,-18.833333333333336,400,-13C427.77777777777777,-7.166666666666666,438.8888888888889,46.875,466.6666666666667,50C494.44444444444446,53.125,505.5555555555556,2.4166666666666665,533.3333333333334,2C561.1111111111111,1.5833333333333335,572.2222222222222,47.583333333333336,600,48C627.7777777777778,48.416666666666664,638.8888888888889,5.25,666.6666666666667,4C694.4444444444446,2.75,707.6388888888889,40.75,733.3333333333334,42C759.0277777777778,43.25,778.1944444444445,16.666666666666664,790,10" transform="matrix(1,0,0,1,0,1517)"></path><path d="M10,10C21.805555555555557,12.916666666666668,40.97222222222223,27.541666666666668,66.66666666666667,24C92.36111111111111,20.458333333333332,105.55555555555557,-9.5,133.33333333333334,-7C161.11111111111111,-4.5,172.22222222222223,40.791666666666664,200,36C227.77777777777777,31.208333333333332,238.8888888888889,-27.083333333333332,266.6666666666667,-30C294.44444444444446,-32.916666666666664,305.5555555555556,18.458333333333332,333.33333333333337,22C361.11111111111114,25.541666666666668,372.22222222222223,-18.833333333333336,400,-13C427.77777777777777,-7.166666666666666,438.8888888888889,46.875,466.6666666666667,50C494.44444444444446,53.125,505.5555555555556,2.4166666666666665,533.3333333333334,2C561.1111111111111,1.5833333333333335,572.2222222222222,47.583333333333336,600,48C627.7777777777778,48.416666666666664,638.8888888888889,5.25,666.6666666666667,4C694.4444444444446,2.75,707.6388888888889,40.75,733.3333333333334,42C759.0277777777778,43.25,778.1944444444445,16.666666666666664,790,10" transform="matrix(1,0,0,1,0,1476)"></path><path d="M10,10C21.805555555555557,12.916666666666668,40.97222222222223,27.541666666666668,66.66666666666667,24C92.36111111111111,20.458333333333332,105.55555555555557,-9.5,133.33333333333334,-7C161.11111111111111,-4.5,172.22222222222223,40.791666666666664,200,36C227.77777777777777,31.208333333333332,238.8888888888889,-27.083333333333332,266.6666666666667,-30C294.44444444444446,-32.916666666666664,305.5555555555556,18.458333333333332,333.33333333333337,22C361.11111111111114,25.541666666666668,372.22222222222223,-18.833333333333336,400,-13C427.77777777777777,-7.166666666666666,438.8888888888889,46.875,466.6666666666667,50C494.44444444444446,53.125,505.5555555555556,2.4166666666666665,533.3333333333334,2C561.1111111111111,1.5833333333333335,572.2222222222222,47.583333333333336,600,48C627.7777777777778,48.416666666666664,638.8888888888889,5.25,666.6666666666667,4C694.4444444444446,2.75,707.6388888888889,40.75,733.3333333333334,42C759.0277777777778,43.25,778.1944444444445,16.666666666666664,790,10" transform="matrix(1,0,0,1,0,1435)"></path><path d="M10,10C21.805555555555557,12.916666666666668,40.97222222222223,27.541666666666668,66.66666666666667,24C92.36111111111111,20.458333333333332,105.55555555555557,-9.5,133.33333333333334,-7C161.11111111111111,-4.5,172.22222222222223,40.791666666666664,200,36C227.77777777777777,31.208333333333332,238.8888888888889,-27.083333333333332,266.6666666666667,-30C294.44444444444446,-32.916666666666664,305.5555555555556,18.458333333333332,333.33333333333337,22C361.11111111111114,25.541666666666668,372.22222222222223,-18.833333333333336,400,-13C427.77777777777777,-7.166666666666666,438.8888888888889,46.875,466.6666666666667,50C494.44444444444446,53.125,505.5555555555556,2.4166666666666665,533.3333333333334,2C561.1111111111111,1.5833333333333335,572.2222222222222,47.583333333333336,600,48C627.7777777777778,48.416666666666664,638.8888888888889,5.25,666.6666666666667,4C694.4444444444446,2.75,707.6388888888889,40.75,733.3333333333334,42C759.0277777777778,43.25,778.1944444444445,16.666666666666664,790,10" transform="matrix(1,0,0,1,0,1394)"></path><path d="M10,10C21.805555555555557,12.916666666666668,40.97222222222223,27.541666666666668,66.66666666666667,24C92.36111111111111,20.458333333333332,105.55555555555557,-9.5,133.33333333333334,-7C161.11111111111111,-4.5,172.22222222222223,40.791666666666664,200,36C227.77777777777777,31.208333333333332,238.8888888888889,-27.083333333333332,266.6666666666667,-30C294.44444444444446,-32.916666666666664,305.5555555555556,18.458333333333332,333.33333333333337,22C361.11111111111114,25.541666666666668,372.22222222222223,-18.833333333333336,400,-13C427.77777777777777,-7.166666666666666,438.8888888888889,46.875,466.6666666666667,50C494.44444444444446,53.125,505.5555555555556,2.4166666666666665,533.3333333333334,2C561.1111111111111,1.5833333333333335,572.2222222222222,47.583333333333336,600,48C627.7777777777778,48.416666666666664,638.8888888888889,5.25,666.6666666666667,4C694.4444444444446,2.75,707.6388888888889,40.75,733.3333333333334,42C759.0277777777778,43.25,778.1944444444445,16.666666666666664,790,10" transform="matrix(1,0,0,1,0,1353)"></path><path d="M10,10C21.805555555555557,12.916666666666668,40.97222222222223,27.541666666666668,66.66666666666667,24C92.36111111111111,20.458333333333332,105.55555555555557,-9.5,133.33333333333334,-7C161.11111111111111,-4.5,172.22222222222223,40.791666666666664,200,36C227.77777777777777,31.208333333333332,238.8888888888889,-27.083333333333332,266.6666666666667,-30C294.44444444444446,-32.916666666666664,305.5555555555556,18.458333333333332,333.33333333333337,22C361.11111111111114,25.541666666666668,372.22222222222223,-18.833333333333336,400,-13C427.77777777777777,-7.166666666666666,438.8888888888889,46.875,466.6666666666667,50C494.44444444444446,53.125,505.5555555555556,2.4166666666666665,533.3333333333334,2C561.1111111111111,1.5833333333333335,572.2222222222222,47.583333333333336,600,48C627.7777777777778,48.416666666666664,638.8888888888889,5.25,666.6666666666667,4C694.4444444444446,2.75,707.6388888888889,40.75,733.3333333333334,42C759.0277777777778,43.25,778.1944444444445,16.666666666666664,790,10" transform="matrix(1,0,0,1,0,1312)"></path><path d="M10,10C21.805555555555557,12.916666666666668,40.97222222222223,27.541666666666668,66.66666666666667,24C92.36111111111111,20.458333333333332,105.55555555555557,-9.5,133.33333333333334,-7C161.11111111111111,-4.5,172.22222222222223,40.791666666666664,200,36C227.77777777777777,31.208333333333332,238.8888888888889,-27.083333333333332,266.6666666666667,-30C294.44444444444446,-32.916666666666664,305.5555555555556,18.458333333333332,333.33333333333337,22C361.11111111111114,25.541666666666668,372.22222222222223,-18.833333333333336,400,-13C427.77777777777777,-7.166666666666666,438.8888888888889,46.875,466.6666666666667,50C494.44444444444446,53.125,505.5555555555556,2.4166666666666665,533.3333333333334,2C561.1111111111111,1.5833333333333335,572.2222222222222,47.583333333333336,600,48C627.7777777777778,48.416666666666664,638.8888888888889,5.25,666.6666666666667,4C694.4444444444446,2.75,707.6388888888889,40.75,733.3333333333334,42C759.0277777777778,43.25,778.1944444444445,16.666666666666664,790,10" transform="matrix(1,0,0,1,0,1271)"></path><path d="M10,10C21.805555555555557,12.916666666666668,40.97222222222223,27.541666666666668,66.66666666666667,24C92.36111111111111,20.458333333333332,105.55555555555557,-9.5,133.33333333333334,-7C161.11111111111111,-4.5,172.22222222222223,40.791666666666664,200,36C227.77777777777777,31.208333333333332,238.8888888888889,-27.083333333333332,266.6666666666667,-30C294.44444444444446,-32.916666666666664,305.5555555555556,18.458333333333332,333.33333333333337,22C361.11111111111114,25.541666666666668,372.22222222222223,-18.833333333333336,400,-13C427.77777777777777,-7.166666666666666,438.8888888888889,46.875,466.6666666666667,50C494.44444444444446,53.125,505.5555555555556,2.4166666666666665,533.3333333333334,2C561.1111111111111,1.5833333333333335,572.2222222222222,47.583333333333336,600,48C627.7777777777778,48.416666666666664,638.8888888888889,5.25,666.6666666666667,4C694.4444444444446,2.75,707.6388888888889,40.75,733.3333333333334,42C759.0277777777778,43.25,778.1944444444445,16.666666666666664,790,10" transform="matrix(1,0,0,1,0,1230)"></path><path d="M10,10C21.805555555555557,12.916666666666668,40.97222222222223,27.541666666666668,66.66666666666667,24C92.36111111111111,20.458333333333332,105.55555555555557,-9.5,133.33333333333334,-7C161.11111111111111,-4.5,172.22222222222223,40.791666666666664,200,36C227.77777777777777,31.208333333333332,238.8888888888889,-27.083333333333332,266.6666666666667,-30C294.44444444444446,-32.916666666666664,305.5555555555556,18.458333333333332,333.33333333333337,22C361.11111111111114,25.541666666666668,372.22222222222223,-18.833333333333336,400,-13C427.77777777777777,-7.166666666666666,438.8888888888889,46.875,466.6666666666667,50C494.44444444444446,53.125,505.5555555555556,2.4166666666666665,533.3333333333334,2C561.1111111111111,1.5833333333333335,572.2222222222222,47.583333333333336,600,48C627.7777777777778,48.416666666666664,638.8888888888889,5.25,666.6666666666667,4C694.4444444444446,2.75,707.6388888888889,40.75,733.3333333333334,42C759.0277777777778,43.25,778.1944444444445,16.666666666666664,790,10" transform="matrix(1,0,0,1,0,1189)"></path><path d="M10,10C21.805555555555557,12.916666666666668,40.97222222222223,27.541666666666668,66.66666666666667,24C92.36111111111111,20.458333333333332,105.55555555555557,-9.5,133.33333333333334,-7C161.11111111111111,-4.5,172.22222222222223,40.791666666666664,200,36C227.77777777777777,31.208333333333332,238.8888888888889,-27.083333333333332,266.6666666666667,-30C294.44444444444446,-32.916666666666664,305.5555555555556,18.458333333333332,333.33333333333337,22C361.11111111111114,25.541666666666668,372.22222222222223,-18.833333333333336,400,-13C427.77777777777777,-7.166666666666666,438.8888888888889,46.875,466.6666666666667,50C494.44444444444446,53.125,505.5555555555556,2.4166666666666665,533.3333333333334,2C561.1111111111111,1.5833333333333335,572.2222222222222,47.583333333333336,600,48C627.7777777777778,48.416666666666664,638.8888888888889,5.25,666.6666666666667,4C694.4444444444446,2.75,707.6388888888889,40.75,733.3333333333334,42C759.0277777777778,43.25,778.1944444444445,16.666666666666664,790,10" transform="matrix(1,0,0,1,0,1148)"></path><path d="M10,10C21.805555555555557,12.916666666666668,40.97222222222223,27.541666666666668,66.66666666666667,24C92.36111111111111,20.458333333333332,105.55555555555557,-9.5,133.33333333333334,-7C161.11111111111111,-4.5,172.22222222222223,40.791666666666664,200,36C227.77777777777777,31.208333333333332,238.8888888888889,-27.083333333333332,266.6666666666667,-30C294.44444444444446,-32.916666666666664,305.5555555555556,18.458333333333332,333.33333333333337,22C361.11111111111114,25.541666666666668,372.22222222222223,-18.833333333333336,400,-13C427.77777777777777,-7.166666666666666,438.8888888888889,46.875,466.6666666666667,50C494.44444444444446,53.125,505.5555555555556,2.4166666666666665,533.3333333333334,2C561.1111111111111,1.5833333333333335,572.2222222222222,47.583333333333336,600,48C627.7777777777778,48.416666666666664,638.8888888888889,5.25,666.6666666666667,4C694.4444444444446,2.75,707.6388888888889,40.75,733.3333333333334,42C759.0277777777778,43.25,778.1944444444445,16.666666666666664,790,10" transform="matrix(1,0,0,1,0,1107)"></path><path d="M10,10C21.805555555555557,12.916666666666668,40.97222222222223,27.541666666666668,66.66666666666667,24C92.36111111111111,20.458333333333332,105.55555555555557,-9.5,133.33333333333334,-7C161.11111111111111,-4.5,172.22222222222223,40.791666666666664,200,36C227.77777777777777,31.208333333333332,238.8888888888889,-27.083333333333332,266.6666666666667,-30C294.44444444444446,-32.916666666666664,305.5555555555556,18.458333333333332,333.33333333333337,22C361.11111111111114,25.541666666666668,372.22222222222223,-18.833333333333336,400,-13C427.77777777777777,-7.166666666666666,438.8888888888889,46.875,466.6666666666667,50C494.44444444444446,53.125,505.5555555555556,2.4166666666666665,533.3333333333334,2C561.1111111111111,1.5833333333333335,572.2222222222222,47.583333333333336,600,48C627.7777777777778,48.416666666666664,638.8888888888889,5.25,666.6666666666667,4C694.4444444444446,2.75,707.6388888888889,40.75,733.3333333333334,42C759.0277777777778,43.25,778.1944444444445,16.666666666666664,790,10" transform="matrix(1,0,0,1,0,1066)"></path><path d="M10,10C21.805555555555557,12.916666666666668,40.97222222222223,27.541666666666668,66.66666666666667,24C92.36111111111111,20.458333333333332,105.55555555555557,-9.5,133.33333333333334,-7C161.11111111111111,-4.5,172.22222222222223,40.791666666666664,200,36C227.77777777777777,31.208333333333332,238.8888888888889,-27.083333333333332,266.6666666666667,-30C294.44444444444446,-32.916666666666664,305.5555555555556,18.458333333333332,333.33333333333337,22C361.11111111111114,25.541666666666668,372.22222222222223,-18.833333333333336,400,-13C427.77777777777777,-7.166666666666666,438.8888888888889,46.875,466.6666666666667,50C494.44444444444446,53.125,505.5555555555556,2.4166666666666665,533.3333333333334,2C561.1111111111111,1.5833333333333335,572.2222222222222,47.583333333333336,600,48C627.7777777777778,48.416666666666664,638.8888888888889,5.25,666.6666666666667,4C694.4444444444446,2.75,707.6388888888889,40.75,733.3333333333334,42C759.0277777777778,43.25,778.1944444444445,16.666666666666664,790,10" transform="matrix(1,0,0,1,0,1025)"></path><path d="M10,10C21.805555555555557,12.916666666666668,40.97222222222223,27.541666666666668,66.66666666666667,24C92.36111111111111,20.458333333333332,105.55555555555557,-9.5,133.33333333333334,-7C161.11111111111111,-4.5,172.22222222222223,40.791666666666664,200,36C227.77777777777777,31.208333333333332,238.8888888888889,-27.083333333333332,266.6666666666667,-30C294.44444444444446,-32.916666666666664,305.5555555555556,18.458333333333332,333.33333333333337,22C361.11111111111114,25.541666666666668,372.22222222222223,-18.833333333333336,400,-13C427.77777777777777,-7.166666666666666,438.8888888888889,46.875,466.6666666666667,50C494.44444444444446,53.125,505.5555555555556,2.4166666666666665,533.3333333333334,2C561.1111111111111,1.5833333333333335,572.2222222222222,47.583333333333336,600,48C627.7777777777778,48.416666666666664,638.8888888888889,5.25,666.6666666666667,4C694.4444444444446,2.75,707.6388888888889,40.75,733.3333333333334,42C759.0277777777778,43.25,778.1944444444445,16.666666666666664,790,10" transform="matrix(1,0,0,1,0,984)"></path><path d="M10,10C21.805555555555557,12.916666666666668,40.97222222222223,27.541666666666668,66.66666666666667,24C92.36111111111111,20.458333333333332,105.55555555555557,-9.5,133.33333333333334,-7C161.11111111111111,-4.5,172.22222222222223,40.791666666666664,200,36C227.77777777777777,31.208333333333332,238.8888888888889,-27.083333333333332,266.6666666666667,-30C294.44444444444446,-32.916666666666664,305.5555555555556,18.458333333333332,333.33333333333337,22C361.11111111111114,25.541666666666668,372.22222222222223,-18.833333333333336,400,-13C427.77777777777777,-7.166666666666666,438.8888888888889,46.875,466.6666666666667,50C494.44444444444446,53.125,505.5555555555556,2.4166666666666665,533.3333333333334,2C561.1111111111111,1.5833333333333335,572.2222222222222,47.583333333333336,600,48C627.7777777777778,48.416666666666664,638.8888888888889,5.25,666.6666666666667,4C694.4444444444446,2.75,707.6388888888889,40.75,733.3333333333334,42C759.0277777777778,43.25,778.1944444444445,16.666666666666664,790,10" transform="matrix(1,0,0,1,0,943)"></path><path d="M10,10C21.805555555555557,12.916666666666668,40.97222222222223,27.541666666666668,66.66666666666667,24C92.36111111111111,20.458333333333332,105.55555555555557,-9.5,133.33333333333334,-7C161.11111111111111,-4.5,172.22222222222223,40.791666666666664,200,36C227.77777777777777,31.208333333333332,238.8888888888889,-27.083333333333332,266.6666666666667,-30C294.44444444444446,-32.916666666666664,305.5555555555556,18.458333333333332,333.33333333333337,22C361.11111111111114,25.541666666666668,372.22222222222223,-18.833333333333336,400,-13C427.77777777777777,-7.166666666666666,438.8888888888889,46.875,466.6666666666667,50C494.44444444444446,53.125,505.5555555555556,2.4166666666666665,533.3333333333334,2C561.1111111111111,1.5833333333333335,572.2222222222222,47.583333333333336,600,48C627.7777777777778,48.416666666666664,638.8888888888889,5.25,666.6666666666667,4C694.4444444444446,2.75,707.6388888888889,40.75,733.3333333333334,42C759.0277777777778,43.25,778.1944444444445,16.666666666666664,790,10" transform="matrix(1,0,0,1,0,902)"></path><path d="M10,10C21.805555555555557,12.916666666666668,40.97222222222223,27.541666666666668,66.66666666666667,24C92.36111111111111,20.458333333333332,105.55555555555557,-9.5,133.33333333333334,-7C161.11111111111111,-4.5,172.22222222222223,40.791666666666664,200,36C227.77777777777777,31.208333333333332,238.8888888888889,-27.083333333333332,266.6666666666667,-30C294.44444444444446,-32.916666666666664,305.5555555555556,18.458333333333332,333.33333333333337,22C361.11111111111114,25.541666666666668,372.22222222222223,-18.833333333333336,400,-13C427.77777777777777,-7.166666666666666,438.8888888888889,46.875,466.6666666666667,50C494.44444444444446,53.125,505.5555555555556,2.4166666666666665,533.3333333333334,2C561.1111111111111,1.5833333333333335,572.2222222222222,47.583333333333336,600,48C627.7777777777778,48.416666666666664,638.8888888888889,5.25,666.6666666666667,4C694.4444444444446,2.75,707.6388888888889,40.75,733.3333333333334,42C759.0277777777778,43.25,778.1944444444445,16.666666666666664,790,10" transform="matrix(1,0,0,1,0,861)"></path><path d="M10,10C21.805555555555557,12.916666666666668,40.97222222222223,27.541666666666668,66.66666666666667,24C92.36111111111111,20.458333333333332,105.55555555555557,-9.5,133.33333333333334,-7C161.11111111111111,-4.5,172.22222222222223,40.791666666666664,200,36C227.77777777777777,31.208333333333332,238.8888888888889,-27.083333333333332,266.6666666666667,-30C294.44444444444446,-32.916666666666664,305.5555555555556,18.458333333333332,333.33333333333337,22C361.11111111111114,25.541666666666668,372.22222222222223,-18.833333333333336,400,-13C427.77777777777777,-7.166666666666666,438.8888888888889,46.875,466.6666666666667,50C494.44444444444446,53.125,505.5555555555556,2.4166666666666665,533.3333333333334,2C561.1111111111111,1.5833333333333335,572.2222222222222,47.583333333333336,600,48C627.7777777777778,48.416666666666664,638.8888888888889,5.25,666.6666666666667,4C694.4444444444446,2.75,707.6388888888889,40.75,733.3333333333334,42C759.0277777777778,43.25,778.1944444444445,16.666666666666664,790,10" transform="matrix(1,0,0,1,0,820)"></path><path d="M10,10C21.805555555555557,12.916666666666668,40.97222222222223,27.541666666666668,66.66666666666667,24C92.36111111111111,20.458333333333332,105.55555555555557,-9.5,133.33333333333334,-7C161.11111111111111,-4.5,172.22222222222223,40.791666666666664,200,36C227.77777777777777,31.208333333333332,238.8888888888889,-27.083333333333332,266.6666666666667,-30C294.44444444444446,-32.916666666666664,305.5555555555556,18.458333333333332,333.33333333333337,22C361.11111111111114,25.541666666666668,372.22222222222223,-18.833333333333336,400,-13C427.77777777777777,-7.166666666666666,438.8888888888889,46.875,466.6666666666667,50C494.44444444444446,53.125,505.5555555555556,2.4166666666666665,533.3333333333334,2C561.1111111111111,1.5833333333333335,572.2222222222222,47.583333333333336,600,48C627.7777777777778,48.416666666666664,638.8888888888889,5.25,666.6666666666667,4C694.4444444444446,2.75,707.6388888888889,40.75,733.3333333333334,42C759.0277777777778,43.25,778.1944444444445,16.666666666666664,790,10" transform="matrix(1,0,0,1,0,779)"></path><path d="M10,10C21.805555555555557,12.916666666666668,40.97222222222223,27.541666666666668,66.66666666666667,24C92.36111111111111,20.458333333333332,105.55555555555557,-9.5,133.33333333333334,-7C161.11111111111111,-4.5,172.22222222222223,40.791666666666664,200,36C227.77777777777777,31.208333333333332,238.8888888888889,-27.083333333333332,266.6666666666667,-30C294.44444444444446,-32.916666666666664,305.5555555555556,18.458333333333332,333.33333333333337,22C361.11111111111114,25.541666666666668,372.22222222222223,-18.833333333333336,400,-13C427.77777777777777,-7.166666666666666,438.8888888888889,46.875,466.6666666666667,50C494.44444444444446,53.125,505.5555555555556,2.4166666666666665,533.3333333333334,2C561.1111111111111,1.5833333333333335,572.2222222222222,47.583333333333336,600,48C627.7777777777778,48.416666666666664,638.8888888888889,5.25,666.6666666666667,4C694.4444444444446,2.75,707.6388888888889,40.75,733.3333333333334,42C759.0277777777778,43.25,778.1944444444445,16.666666666666664,790,10" transform="matrix(1,0,0,1,0,738)"></path><path d="M10,10C21.805555555555557,12.916666666666668,40.97222222222223,27.541666666666668,66.66666666666667,24C92.36111111111111,20.458333333333332,105.55555555555557,-9.5,133.33333333333334,-7C161.11111111111111,-4.5,172.22222222222223,40.791666666666664,200,36C227.77777777777777,31.208333333333332,238.8888888888889,-27.083333333333332,266.6666666666667,-30C294.44444444444446,-32.916666666666664,305.5555555555556,18.458333333333332,333.33333333333337,22C361.11111111111114,25.541666666666668,372.22222222222223,-18.833333333333336,400,-13C427.77777777777777,-7.166666666666666,438.8888888888889,46.875,466.6666666666667,50C494.44444444444446,53.125,505.5555555555556,2.4166666666666665,533.3333333333334,2C561.1111111111111,1.5833333333333335,572.2222222222222,47.583333333333336,600,48C627.7777777777778,48.416666666666664,638.8888888888889,5.25,666.6666666666667,4C694.4444444444446,2.75,707.6388888888889,40.75,733.3333333333334,42C759.0277777777778,43.25,778.1944444444445,16.666666666666664,790,10" transform="matrix(1,0,0,1,0,697)"></path><path d="M10,10C21.805555555555557,12.916666666666668,40.97222222222223,27.541666666666668,66.66666666666667,24C92.36111111111111,20.458333333333332,105.55555555555557,-9.5,133.33333333333334,-7C161.11111111111111,-4.5,172.22222222222223,40.791666666666664,200,36C227.77777777777777,31.208333333333332,238.8888888888889,-27.083333333333332,266.6666666666667,-30C294.44444444444446,-32.916666666666664,305.5555555555556,18.458333333333332,333.33333333333337,22C361.11111111111114,25.541666666666668,372.22222222222223,-18.833333333333336,400,-13C427.77777777777777,-7.166666666666666,438.8888888888889,46.875,466.6666666666667,50C494.44444444444446,53.125,505.5555555555556,2.4166666666666665,533.3333333333334,2C561.1111111111111,1.5833333333333335,572.2222222222222,47.583333333333336,600,48C627.7777777777778,48.416666666666664,638.8888888888889,5.25,666.6666666666667,4C694.4444444444446,2.75,707.6388888888889,40.75,733.3333333333334,42C759.0277777777778,43.25,778.1944444444445,16.666666666666664,790,10" transform="matrix(1,0,0,1,0,656)"></path><path d="M10,10C21.805555555555557,12.916666666666668,40.97222222222223,27.541666666666668,66.66666666666667,24C92.36111111111111,20.458333333333332,105.55555555555557,-9.5,133.33333333333334,-7C161.11111111111111,-4.5,172.22222222222223,40.791666666666664,200,36C227.77777777777777,31.208333333333332,238.8888888888889,-27.083333333333332,266.6666666666667,-30C294.44444444444446,-32.916666666666664,305.5555555555556,18.458333333333332,333.33333333333337,22C361.11111111111114,25.541666666666668,372.22222222222223,-18.833333333333336,400,-13C427.77777777777777,-7.166666666666666,438.8888888888889,46.875,466.6666666666667,50C494.44444444444446,53.125,505.5555555555556,2.4166666666666665,533.3333333333334,2C561.1111111111111,1.5833333333333335,572.2222222222222,47.583333333333336,600,48C627.7777777777778,48.416666666666664,638.8888888888889,5.25,666.6666666666667,4C694.4444444444446,2.75,707.6388888888889,40.75,733.3333333333334,42C759.0277777777778,43.25,778.1944444444445,16.666666666666664,790,10" transform="matrix(1,0,0,1,0,615)"></path><path d="M10,10C21.805555555555557,12.916666666666668,40.97222222222223,27.541666666666668,66.66666666666667,24C92.36111111111111,20.458333333333332,105.55555555555557,-9.5,133.33333333333334,-7C161.11111111111111,-4.5,172.22222222222223,40.791666666666664,200,36C227.77777777777777,31.208333333333332,238.8888888888889,-27.083333333333332,266.6666666666667,-30C294.44444444444446,-32.916666666666664,305.5555555555556,18.458333333333332,333.33333333333337,22C361.11111111111114,25.541666666666668,372.22222222222223,-18.833333333333336,400,-13C427.77777777777777,-7.166666666666666,438.8888888888889,46.875,466.6666666666667,50C494.44444444444446,53.125,505.5555555555556,2.4166666666666665,533.3333333333334,2C561.1111111111111,1.5833333333333335,572.2222222222222,47.583333333333336,600,48C627.7777777777778,48.416666666666664,638.8888888888889,5.25,666.6666666666667,4C694.4444444444446,2.75,707.6388888888889,40.75,733.3333333333334,42C759.0277777777778,43.25,778.1944444444445,16.666666666666664,790,10" transform="matrix(1,0,0,1,0,574)"></path><path d="M10,10C21.805555555555557,12.916666666666668,40.97222222222223,27.541666666666668,66.66666666666667,24C92.36111111111111,20.458333333333332,105.55555555555557,-9.5,133.33333333333334,-7C161.11111111111111,-4.5,172.22222222222223,40.791666666666664,200,36C227.77777777777777,31.208333333333332,238.8888888888889,-27.083333333333332,266.6666666666667,-30C294.44444444444446,-32.916666666666664,305.5555555555556,18.458333333333332,333.33333333333337,22C361.11111111111114,25.541666666666668,372.22222222222223,-18.833333333333336,400,-13C427.77777777777777,-7.166666666666666,438.8888888888889,46.875,466.6666666666667,50C494.44444444444446,53.125,505.5555555555556,2.4166666666666665,533.3333333333334,2C561.1111111111111,1.5833333333333335,572.2222222222222,47.583333333333336,600,48C627.7777777777778,48.416666666666664,638.8888888888889,5.25,666.6666666666667,4C694.4444444444446,2.75,707.6388888888889,40.75,733.3333333333334,42C759.0277777777778,43.25,778.1944444444445,16.666666666666664,790,10" transform="matrix(1,0,0,1,0,533)"></path><path d="M10,10C21.805555555555557,12.916666666666668,40.97222222222223,27.541666666666668,66.66666666666667,24C92.36111111111111,20.458333333333332,105.55555555555557,-9.5,133.33333333333334,-7C161.11111111111111,-4.5,172.22222222222223,40.791666666666664,200,36C227.77777777777777,31.208333333333332,238.8888888888889,-27.083333333333332,266.6666666666667,-30C294.44444444444446,-32.916666666666664,305.5555555555556,18.458333333333332,333.33333333333337,22C361.11111111111114,25.541666666666668,372.22222222222223,-18.833333333333336,400,-13C427.77777777777777,-7.166666666666666,438.8888888888889,46.875,466.6666666666667,50C494.44444444444446,53.125,505.5555555555556,2.4166666666666665,533.3333333333334,2C561.1111111111111,1.5833333333333335,572.2222222222222,47.583333333333336,600,48C627.7777777777778,48.416666666666664,638.8888888888889,5.25,666.6666666666667,4C694.4444444444446,2.75,707.6388888888889,40.75,733.3333333333334,42C759.0277777777778,43.25,778.1944444444445,16.666666666666664,790,10" transform="matrix(1,0,0,1,0,492)"></path><path d="M10,10C21.805555555555557,12.916666666666668,40.97222222222223,27.541666666666668,66.66666666666667,24C92.36111111111111,20.458333333333332,105.55555555555557,-9.5,133.33333333333334,-7C161.11111111111111,-4.5,172.22222222222223,40.791666666666664,200,36C227.77777777777777,31.208333333333332,238.8888888888889,-27.083333333333332,266.6666666666667,-30C294.44444444444446,-32.916666666666664,305.5555555555556,18.458333333333332,333.33333333333337,22C361.11111111111114,25.541666666666668,372.22222222222223,-18.833333333333336,400,-13C427.77777777777777,-7.166666666666666,438.8888888888889,46.875,466.6666666666667,50C494.44444444444446,53.125,505.5555555555556,2.4166666666666665,533.3333333333334,2C561.1111111111111,1.5833333333333335,572.2222222222222,47.583333333333336,600,48C627.7777777777778,48.416666666666664,638.8888888888889,5.25,666.6666666666667,4C694.4444444444446,2.75,707.6388888888889,40.75,733.3333333333334,42C759.0277777777778,43.25,778.1944444444445,16.666666666666664,790,10" transform="matrix(1,0,0,1,0,451)"></path><path d="M10,10C21.805555555555557,12.916666666666668,40.97222222222223,27.541666666666668,66.66666666666667,24C92.36111111111111,20.458333333333332,105.55555555555557,-9.5,133.33333333333334,-7C161.11111111111111,-4.5,172.22222222222223,40.791666666666664,200,36C227.77777777777777,31.208333333333332,238.8888888888889,-27.083333333333332,266.6666666666667,-30C294.44444444444446,-32.916666666666664,305.5555555555556,18.458333333333332,333.33333333333337,22C361.11111111111114,25.541666666666668,372.22222222222223,-18.833333333333336,400,-13C427.77777777777777,-7.166666666666666,438.8888888888889,46.875,466.6666666666667,50C494.44444444444446,53.125,505.5555555555556,2.4166666666666665,533.3333333333334,2C561.1111111111111,1.5833333333333335,572.2222222222222,47.583333333333336,600,48C627.7777777777778,48.416666666666664,638.8888888888889,5.25,666.6666666666667,4C694.4444444444446,2.75,707.6388888888889,40.75,733.3333333333334,42C759.0277777777778,43.25,778.1944444444445,16.666666666666664,790,10" transform="matrix(1,0,0,1,0,410)"></path><path d="M10,10C21.805555555555557,12.916666666666668,40.97222222222223,27.541666666666668,66.66666666666667,24C92.36111111111111,20.458333333333332,105.55555555555557,-9.5,133.33333333333334,-7C161.11111111111111,-4.5,172.22222222222223,40.791666666666664,200,36C227.77777777777777,31.208333333333332,238.8888888888889,-27.083333333333332,266.6666666666667,-30C294.44444444444446,-32.916666666666664,305.5555555555556,18.458333333333332,333.33333333333337,22C361.11111111111114,25.541666666666668,372.22222222222223,-18.833333333333336,400,-13C427.77777777777777,-7.166666666666666,438.8888888888889,46.875,466.6666666666667,50C494.44444444444446,53.125,505.5555555555556,2.4166666666666665,533.3333333333334,2C561.1111111111111,1.5833333333333335,572.2222222222222,47.583333333333336,600,48C627.7777777777778,48.416666666666664,638.8888888888889,5.25,666.6666666666667,4C694.4444444444446,2.75,707.6388888888889,40.75,733.3333333333334,42C759.0277777777778,43.25,778.1944444444445,16.666666666666664,790,10" transform="matrix(1,0,0,1,0,369)"></path><path d="M10,10C21.805555555555557,12.916666666666668,40.97222222222223,27.541666666666668,66.66666666666667,24C92.36111111111111,20.458333333333332,105.55555555555557,-9.5,133.33333333333334,-7C161.11111111111111,-4.5,172.22222222222223,40.791666666666664,200,36C227.77777777777777,31.208333333333332,238.8888888888889,-27.083333333333332,266.6666666666667,-30C294.44444444444446,-32.916666666666664,305.5555555555556,18.458333333333332,333.33333333333337,22C361.11111111111114,25.541666666666668,372.22222222222223,-18.833333333333336,400,-13C427.77777777777777,-7.166666666666666,438.8888888888889,46.875,466.6666666666667,50C494.44444444444446,53.125,505.5555555555556,2.4166666666666665,533.3333333333334,2C561.1111111111111,1.5833333333333335,572.2222222222222,47.583333333333336,600,48C627.7777777777778,48.416666666666664,638.8888888888889,5.25,666.6666666666667,4C694.4444444444446,2.75,707.6388888888889,40.75,733.3333333333334,42C759.0277777777778,43.25,778.1944444444445,16.666666666666664,790,10" transform="matrix(1,0,0,1,0,328)"></path><path d="M10,10C21.805555555555557,12.916666666666668,40.97222222222223,27.541666666666668,66.66666666666667,24C92.36111111111111,20.458333333333332,105.55555555555557,-9.5,133.33333333333334,-7C161.11111111111111,-4.5,172.22222222222223,40.791666666666664,200,36C227.77777777777777,31.208333333333332,238.8888888888889,-27.083333333333332,266.6666666666667,-30C294.44444444444446,-32.916666666666664,305.5555555555556,18.458333333333332,333.33333333333337,22C361.11111111111114,25.541666666666668,372.22222222222223,-18.833333333333336,400,-13C427.77777777777777,-7.166666666666666,438.8888888888889,46.875,466.6666666666667,50C494.44444444444446,53.125,505.5555555555556,2.4166666666666665,533.3333333333334,2C561.1111111111111,1.5833333333333335,572.2222222222222,47.583333333333336,600,48C627.7777777777778,48.416666666666664,638.8888888888889,5.25,666.6666666666667,4C694.4444444444446,2.75,707.6388888888889,40.75,733.3333333333334,42C759.0277777777778,43.25,778.1944444444445,16.666666666666664,790,10" transform="matrix(1,0,0,1,0,287)"></path><path d="M10,10C21.805555555555557,12.916666666666668,40.97222222222223,27.541666666666668,66.66666666666667,24C92.36111111111111,20.458333333333332,105.55555555555557,-9.5,133.33333333333334,-7C161.11111111111111,-4.5,172.22222222222223,40.791666666666664,200,36C227.77777777777777,31.208333333333332,238.8888888888889,-27.083333333333332,266.6666666666667,-30C294.44444444444446,-32.916666666666664,305.5555555555556,18.458333333333332,333.33333333333337,22C361.11111111111114,25.541666666666668,372.22222222222223,-18.833333333333336,400,-13C427.77777777777777,-7.166666666666666,438.8888888888889,46.875,466.6666666666667,50C494.44444444444446,53.125,505.5555555555556,2.4166666666666665,533.3333333333334,2C561.1111111111111,1.5833333333333335,572.2222222222222,47.583333333333336,600,48C627.7777777777778,48.416666666666664,638.8888888888889,5.25,666.6666666666667,4C694.4444444444446,2.75,707.6388888888889,40.75,733.3333333333334,42C759.0277777777778,43.25,778.1944444444445,16.666666666666664,790,10" transform="matrix(1,0,0,1,0,246)"></path><path d="M10,10C21.805555555555557,12.916666666666668,40.97222222222223,27.541666666666668,66.66666666666667,24C92.36111111111111,20.458333333333332,105.55555555555557,-9.5,133.33333333333334,-7C161.11111111111111,-4.5,172.22222222222223,40.791666666666664,200,36C227.77777777777777,31.208333333333332,238.8888888888889,-27.083333333333332,266.6666666666667,-30C294.44444444444446,-32.916666666666664,305.5555555555556,18.458333333333332,333.33333333333337,22C361.11111111111114,25.541666666666668,372.22222222222223,-18.833333333333336,400,-13C427.77777777777777,-7.166666666666666,438.8888888888889,46.875,466.6666666666667,50C494.44444444444446,53.125,505.5555555555556,2.4166666666666665,533.3333333333334,2C561.1111111111111,1.5833333333333335,572.2222222222222,47.583333333333336,600,48C627.7777777777778,48.416666666666664,638.8888888888889,5.25,666.6666666666667,4C694.4444444444446,2.75,707.6388888888889,40.75,733.3333333333334,42C759.0277777777778,43.25,778.1944444444445,16.666666666666664,790,10" transform="matrix(1,0,0,1,0,205)"></path><path d="M10,10C21.805555555555557,12.916666666666668,40.97222222222223,27.541666666666668,66.66666666666667,24C92.36111111111111,20.458333333333332,105.55555555555557,-9.5,133.33333333333334,-7C161.11111111111111,-4.5,172.22222222222223,40.791666666666664,200,36C227.77777777777777,31.208333333333332,238.8888888888889,-27.083333333333332,266.6666666666667,-30C294.44444444444446,-32.916666666666664,305.5555555555556,18.458333333333332,333.33333333333337,22C361.11111111111114,25.541666666666668,372.22222222222223,-18.833333333333336,400,-13C427.77777777777777,-7.166666666666666,438.8888888888889,46.875,466.6666666666667,50C494.44444444444446,53.125,505.5555555555556,2.4166666666666665,533.3333333333334,2C561.1111111111111,1.5833333333333335,572.2222222222222,47.583333333333336,600,48C627.7777777777778,48.416666666666664,638.8888888888889,5.25,666.6666666666667,4C694.4444444444446,2.75,707.6388888888889,40.75,733.3333333333334,42C759.0277777777778,43.25,778.1944444444445,16.666666666666664,790,10" transform="matrix(1,0,0,1,0,164)"></path><path d="M10,10C21.805555555555557,12.916666666666668,40.97222222222223,27.541666666666668,66.66666666666667,24C92.36111111111111,20.458333333333332,105.55555555555557,-9.5,133.33333333333334,-7C161.11111111111111,-4.5,172.22222222222223,40.791666666666664,200,36C227.77777777777777,31.208333333333332,238.8888888888889,-27.083333333333332,266.6666666666667,-30C294.44444444444446,-32.916666666666664,305.5555555555556,18.458333333333332,333.33333333333337,22C361.11111111111114,25.541666666666668,372.22222222222223,-18.833333333333336,400,-13C427.77777777777777,-7.166666666666666,438.8888888888889,46.875,466.6666666666667,50C494.44444444444446,53.125,505.5555555555556,2.4166666666666665,533.3333333333334,2C561.1111111111111,1.5833333333333335,572.2222222222222,47.583333333333336,600,48C627.7777777777778,48.416666666666664,638.8888888888889,5.25,666.6666666666667,4C694.4444444444446,2.75,707.6388888888889,40.75,733.3333333333334,42C759.0277777777778,43.25,778.1944444444445,16.666666666666664,790,10" transform="matrix(1,0,0,1,0,123)"></path><path d="M10,10C21.805555555555557,12.916666666666668,40.97222222222223,27.541666666666668,66.66666666666667,24C92.36111111111111,20.458333333333332,105.55555555555557,-9.5,133.33333333333334,-7C161.11111111111111,-4.5,172.22222222222223,40.791666666666664,200,36C227.77777777777777,31.208333333333332,238.8888888888889,-27.083333333333332,266.6666666666667,-30C294.44444444444446,-32.916666666666664,305.5555555555556,18.458333333333332,333.33333333333337,22C361.11111111111114,25.541666666666668,372.22222222222223,-18.833333333333336,400,-13C427.77777777777777,-7.166666666666666,438.8888888888889,46.875,466.6666666666667,50C494.44444444444446,53.125,505.5555555555556,2.4166666666666665,533.3333333333334,2C561.1111111111111,1.5833333333333335,572.2222222222222,47.583333333333336,600,48C627.7777777777778,48.416666666666664,638.8888888888889,5.25,666.6666666666667,4C694.4444444444446,2.75,707.6388888888889,40.75,733.3333333333334,42C759.0277777777778,43.25,778.1944444444445,16.666666666666664,790,10" transform="matrix(1,0,0,1,0,82)"></path><path d="M10,10C21.805555555555557,12.916666666666668,40.97222222222223,27.541666666666668,66.66666666666667,24C92.36111111111111,20.458333333333332,105.55555555555557,-9.5,133.33333333333334,-7C161.11111111111111,-4.5,172.22222222222223,40.791666666666664,200,36C227.77777777777777,31.208333333333332,238.8888888888889,-27.083333333333332,266.6666666666667,-30C294.44444444444446,-32.916666666666664,305.5555555555556,18.458333333333332,333.33333333333337,22C361.11111111111114,25.541666666666668,372.22222222222223,-18.833333333333336,400,-13C427.77777777777777,-7.166666666666666,438.8888888888889,46.875,466.6666666666667,50C494.44444444444446,53.125,505.5555555555556,2.4166666666666665,533.3333333333334,2C561.1111111111111,1.5833333333333335,572.2222222222222,47.583333333333336,600,48C627.7777777777778,48.416666666666664,638.8888888888889,5.25,666.6666666666667,4C694.4444444444446,2.75,707.6388888888889,40.75,733.3333333333334,42C759.0277777777778,43.25,778.1944444444445,16.666666666666664,790,10" transform="matrix(1,0,0,1,0,41)"></path></g></svg>