<svg xmlns="http://www.w3.org/2000/svg" version="1.1" xmlns:xlink="http://www.w3.org/1999/xlink" xmlns:svgjs="http://svgjs.dev/svgjs" viewBox="0 0 1422 800"><g stroke-width="9" stroke="hsl(231, 100%, 64%)" fill="none" stroke-linecap="butt"><line x1="0" y1="0" x2="58" y2="58" opacity="0.40"></line><line x1="58" y1="0" x2="116" y2="58" opacity="0.37"></line><line x1="116" y1="0" x2="174" y2="58" opacity="0.81"></line><line x1="232" y1="0" x2="174" y2="58" opacity="0.57"></line><line x1="232" y1="0" x2="290" y2="58" opacity="0.83"></line><line x1="290" y1="0" x2="348" y2="58" opacity="0.62"></line><line x1="348" y1="0" x2="406" y2="58" opacity="0.83"></line><line x1="406" y1="0" x2="464" y2="58" opacity="0.83"></line><line x1="464" y1="0" x2="522" y2="58" opacity="0.98"></line><line x1="580" y1="0" x2="522" y2="58" opacity="0.32"></line><line x1="580" y1="0" x2="638" y2="58" opacity="0.12"></line><line x1="696" y1="0" x2="638" y2="58" opacity="0.58"></line><line x1="696" y1="0" x2="754" y2="58" opacity="0.82"></line><line x1="812" y1="0" x2="754" y2="58" opacity="0.37"></line><line x1="812" y1="0" x2="870" y2="58" opacity="0.70"></line><line x1="870" y1="0" x2="928" y2="58" opacity="0.33"></line><line x1="928" y1="0" x2="986" y2="58" opacity="0.72"></line><line x1="986" y1="0" x2="1044" y2="58" opacity="0.72"></line><line x1="1044" y1="0" x2="1102" y2="58" opacity="0.34"></line><line x1="1102" y1="0" x2="1160" y2="58" opacity="0.45"></line><line x1="1160" y1="0" x2="1218" y2="58" opacity="0.26"></line><line x1="1218" y1="0" x2="1276" y2="58" opacity="0.30"></line><line x1="1276" y1="0" x2="1334" y2="58" opacity="0.75"></line><line x1="1334" y1="0" x2="1392" y2="58" opacity="0.40"></line><line x1="1392" y1="0" x2="1450" y2="58" opacity="0.51"></line><line x1="58" y1="58" x2="0" y2="116" opacity="0.17"></line><line x1="58" y1="58" x2="116" y2="116" opacity="0.76"></line><line x1="116" y1="58" x2="174" y2="116" opacity="0.45"></line><line x1="174" y1="58" x2="232" y2="116" opacity="0.56"></line><line x1="232" y1="58" x2="290" y2="116" opacity="0.84"></line><line x1="348" y1="58" x2="290" y2="116" opacity="0.88"></line><line x1="406" y1="58" x2="348" y2="116" opacity="0.75"></line><line x1="406" y1="58" x2="464" y2="116" opacity="0.31"></line><line x1="464" y1="58" x2="522" y2="116" opacity="0.75"></line><line x1="580" y1="58" x2="522" y2="116" opacity="0.49"></line><line x1="580" y1="58" x2="638" y2="116" opacity="0.50"></line><line x1="638" y1="58" x2="696" y2="116" opacity="0.69"></line><line x1="696" y1="58" x2="754" y2="116" opacity="0.80"></line><line x1="812" y1="58" x2="754" y2="116" opacity="0.27"></line><line x1="812" y1="58" x2="870" y2="116" opacity="0.91"></line><line x1="870" y1="58" x2="928" y2="116" opacity="0.53"></line><line x1="928" y1="58" x2="986" y2="116" opacity="0.93"></line><line x1="986" y1="58" x2="1044" y2="116" opacity="0.88"></line><line x1="1044" y1="58" x2="1102" y2="116" opacity="0.22"></line><line x1="1102" y1="58" x2="1160" y2="116" opacity="0.41"></line><line x1="1218" y1="58" x2="1160" y2="116" opacity="0.36"></line><line x1="1218" y1="58" x2="1276" y2="116" opacity="0.15"></line><line x1="1276" y1="58" x2="1334" y2="116" opacity="0.97"></line><line x1="1334" y1="58" x2="1392" y2="116" opacity="0.29"></line><line x1="1392" y1="58" x2="1450" y2="116" opacity="0.75"></line><line x1="58" y1="116" x2="0" y2="174" opacity="0.18"></line><line x1="58" y1="116" x2="116" y2="174" opacity="0.63"></line><line x1="116" y1="116" x2="174" y2="174" opacity="0.41"></line><line x1="174" y1="116" x2="232" y2="174" opacity="0.16"></line><line x1="232" y1="116" x2="290" y2="174" opacity="0.09"></line><line x1="290" y1="116" x2="348" y2="174" opacity="0.15"></line><line x1="348" y1="116" x2="406" y2="174" opacity="0.77"></line><line x1="406" y1="116" x2="464" y2="174" opacity="0.43"></line><line x1="464" y1="116" x2="522" y2="174" opacity="0.12"></line><line x1="580" y1="116" x2="522" y2="174" opacity="0.14"></line><line x1="580" y1="116" x2="638" y2="174" opacity="0.32"></line><line x1="696" y1="116" x2="638" y2="174" opacity="0.59"></line><line x1="754" y1="116" x2="696" y2="174" opacity="0.69"></line><line x1="754" y1="116" x2="812" y2="174" opacity="0.99"></line><line x1="812" y1="116" x2="870" y2="174" opacity="0.88"></line><line x1="870" y1="116" x2="928" y2="174" opacity="0.82"></line><line x1="986" y1="116" x2="928" y2="174" opacity="0.47"></line><line x1="986" y1="116" x2="1044" y2="174" opacity="0.56"></line><line x1="1044" y1="116" x2="1102" y2="174" opacity="0.54"></line><line x1="1102" y1="116" x2="1160" y2="174" opacity="0.36"></line><line x1="1160" y1="116" x2="1218" y2="174" opacity="0.34"></line><line x1="1218" y1="116" x2="1276" y2="174" opacity="0.12"></line><line x1="1276" y1="116" x2="1334" y2="174" opacity="0.68"></line><line x1="1392" y1="116" x2="1334" y2="174" opacity="0.10"></line><line x1="1392" y1="116" x2="1450" y2="174" opacity="0.07"></line><line x1="58" y1="174" x2="0" y2="232" opacity="0.26"></line><line x1="58" y1="174" x2="116" y2="232" opacity="0.58"></line><line x1="116" y1="174" x2="174" y2="232" opacity="0.71"></line><line x1="174" y1="174" x2="232" y2="232" opacity="0.78"></line><line x1="232" y1="174" x2="290" y2="232" opacity="0.08"></line><line x1="290" y1="174" x2="348" y2="232" opacity="0.44"></line><line x1="348" y1="174" x2="406" y2="232" opacity="0.58"></line><line x1="406" y1="174" x2="464" y2="232" opacity="0.18"></line><line x1="464" y1="174" x2="522" y2="232" opacity="0.61"></line><line x1="522" y1="174" x2="580" y2="232" opacity="0.54"></line><line x1="580" y1="174" x2="638" y2="232" opacity="0.88"></line><line x1="638" y1="174" x2="696" y2="232" opacity="0.70"></line><line x1="696" y1="174" x2="754" y2="232" opacity="0.32"></line><line x1="754" y1="174" x2="812" y2="232" opacity="0.64"></line><line x1="812" y1="174" x2="870" y2="232" opacity="1.00"></line><line x1="928" y1="174" x2="870" y2="232" opacity="0.09"></line><line x1="986" y1="174" x2="928" y2="232" opacity="0.19"></line><line x1="986" y1="174" x2="1044" y2="232" opacity="0.62"></line><line x1="1102" y1="174" x2="1044" y2="232" opacity="0.40"></line><line x1="1102" y1="174" x2="1160" y2="232" opacity="0.96"></line><line x1="1160" y1="174" x2="1218" y2="232" opacity="0.24"></line><line x1="1218" y1="174" x2="1276" y2="232" opacity="0.79"></line><line x1="1276" y1="174" x2="1334" y2="232" opacity="0.07"></line><line x1="1392" y1="174" x2="1334" y2="232" opacity="0.53"></line><line x1="1392" y1="174" x2="1450" y2="232" opacity="0.92"></line><line x1="0" y1="232" x2="58" y2="290" opacity="0.59"></line><line x1="58" y1="232" x2="116" y2="290" opacity="0.87"></line><line x1="116" y1="232" x2="174" y2="290" opacity="0.21"></line><line x1="232" y1="232" x2="174" y2="290" opacity="0.35"></line><line x1="232" y1="232" x2="290" y2="290" opacity="0.60"></line><line x1="348" y1="232" x2="290" y2="290" opacity="0.80"></line><line x1="406" y1="232" x2="348" y2="290" opacity="0.75"></line><line x1="464" y1="232" x2="406" y2="290" opacity="0.53"></line><line x1="464" y1="232" x2="522" y2="290" opacity="0.18"></line><line x1="522" y1="232" x2="580" y2="290" opacity="0.95"></line><line x1="580" y1="232" x2="638" y2="290" opacity="0.90"></line><line x1="696" y1="232" x2="638" y2="290" opacity="0.75"></line><line x1="696" y1="232" x2="754" y2="290" opacity="0.87"></line><line x1="754" y1="232" x2="812" y2="290" opacity="0.77"></line><line x1="812" y1="232" x2="870" y2="290" opacity="0.22"></line><line x1="870" y1="232" x2="928" y2="290" opacity="0.68"></line><line x1="928" y1="232" x2="986" y2="290" opacity="0.72"></line><line x1="986" y1="232" x2="1044" y2="290" opacity="0.37"></line><line x1="1102" y1="232" x2="1044" y2="290" opacity="0.43"></line><line x1="1160" y1="232" x2="1102" y2="290" opacity="0.15"></line><line x1="1160" y1="232" x2="1218" y2="290" opacity="0.64"></line><line x1="1218" y1="232" x2="1276" y2="290" opacity="0.19"></line><line x1="1276" y1="232" x2="1334" y2="290" opacity="0.56"></line><line x1="1334" y1="232" x2="1392" y2="290" opacity="0.98"></line><line x1="1450" y1="232" x2="1392" y2="290" opacity="0.52"></line><line x1="58" y1="290" x2="0" y2="348" opacity="0.62"></line><line x1="116" y1="290" x2="58" y2="348" opacity="0.31"></line><line x1="116" y1="290" x2="174" y2="348" opacity="0.27"></line><line x1="174" y1="290" x2="232" y2="348" opacity="0.49"></line><line x1="232" y1="290" x2="290" y2="348" opacity="0.42"></line><line x1="290" y1="290" x2="348" y2="348" opacity="0.31"></line><line x1="406" y1="290" x2="348" y2="348" opacity="0.10"></line><line x1="406" y1="290" x2="464" y2="348" opacity="0.29"></line><line x1="522" y1="290" x2="464" y2="348" opacity="0.15"></line><line x1="522" y1="290" x2="580" y2="348" opacity="0.54"></line><line x1="580" y1="290" x2="638" y2="348" opacity="0.30"></line><line x1="638" y1="290" x2="696" y2="348" opacity="0.50"></line><line x1="754" y1="290" x2="696" y2="348" opacity="0.70"></line><line x1="754" y1="290" x2="812" y2="348" opacity="0.50"></line><line x1="812" y1="290" x2="870" y2="348" opacity="0.42"></line><line x1="928" y1="290" x2="870" y2="348" opacity="0.40"></line><line x1="928" y1="290" x2="986" y2="348" opacity="0.15"></line><line x1="986" y1="290" x2="1044" y2="348" opacity="0.66"></line><line x1="1044" y1="290" x2="1102" y2="348" opacity="0.50"></line><line x1="1160" y1="290" x2="1102" y2="348" opacity="0.57"></line><line x1="1160" y1="290" x2="1218" y2="348" opacity="0.74"></line><line x1="1218" y1="290" x2="1276" y2="348" opacity="0.26"></line><line x1="1276" y1="290" x2="1334" y2="348" opacity="0.79"></line><line x1="1392" y1="290" x2="1334" y2="348" opacity="0.23"></line><line x1="1392" y1="290" x2="1450" y2="348" opacity="0.39"></line><line x1="0" y1="348" x2="58" y2="406" opacity="0.66"></line><line x1="58" y1="348" x2="116" y2="406" opacity="0.61"></line><line x1="116" y1="348" x2="174" y2="406" opacity="0.88"></line><line x1="174" y1="348" x2="232" y2="406" opacity="0.17"></line><line x1="232" y1="348" x2="290" y2="406" opacity="0.72"></line><line x1="290" y1="348" x2="348" y2="406" opacity="0.83"></line><line x1="406" y1="348" x2="348" y2="406" opacity="0.74"></line><line x1="406" y1="348" x2="464" y2="406" opacity="0.18"></line><line x1="464" y1="348" x2="522" y2="406" opacity="0.42"></line><line x1="522" y1="348" x2="580" y2="406" opacity="0.61"></line><line x1="638" y1="348" x2="580" y2="406" opacity="0.14"></line><line x1="638" y1="348" x2="696" y2="406" opacity="0.61"></line><line x1="696" y1="348" x2="754" y2="406" opacity="0.93"></line><line x1="754" y1="348" x2="812" y2="406" opacity="0.40"></line><line x1="870" y1="348" x2="812" y2="406" opacity="0.11"></line><line x1="870" y1="348" x2="928" y2="406" opacity="0.71"></line><line x1="928" y1="348" x2="986" y2="406" opacity="0.86"></line><line x1="1044" y1="348" x2="986" y2="406" opacity="0.08"></line><line x1="1044" y1="348" x2="1102" y2="406" opacity="0.81"></line><line x1="1102" y1="348" x2="1160" y2="406" opacity="0.84"></line><line x1="1160" y1="348" x2="1218" y2="406" opacity="0.99"></line><line x1="1218" y1="348" x2="1276" y2="406" opacity="0.37"></line><line x1="1276" y1="348" x2="1334" y2="406" opacity="0.66"></line><line x1="1334" y1="348" x2="1392" y2="406" opacity="0.24"></line><line x1="1392" y1="348" x2="1450" y2="406" opacity="0.60"></line><line x1="0" y1="406" x2="58" y2="464" opacity="0.22"></line><line x1="58" y1="406" x2="116" y2="464" opacity="0.58"></line><line x1="116" y1="406" x2="174" y2="464" opacity="0.27"></line><line x1="174" y1="406" x2="232" y2="464" opacity="0.71"></line><line x1="232" y1="406" x2="290" y2="464" opacity="0.96"></line><line x1="290" y1="406" x2="348" y2="464" opacity="0.14"></line><line x1="348" y1="406" x2="406" y2="464" opacity="0.44"></line><line x1="464" y1="406" x2="406" y2="464" opacity="0.93"></line><line x1="464" y1="406" x2="522" y2="464" opacity="0.76"></line><line x1="522" y1="406" x2="580" y2="464" opacity="0.80"></line><line x1="580" y1="406" x2="638" y2="464" opacity="0.99"></line><line x1="638" y1="406" x2="696" y2="464" opacity="0.14"></line><line x1="696" y1="406" x2="754" y2="464" opacity="0.49"></line><line x1="754" y1="406" x2="812" y2="464" opacity="0.52"></line><line x1="812" y1="406" x2="870" y2="464" opacity="0.18"></line><line x1="870" y1="406" x2="928" y2="464" opacity="0.84"></line><line x1="928" y1="406" x2="986" y2="464" opacity="0.46"></line><line x1="986" y1="406" x2="1044" y2="464" opacity="0.47"></line><line x1="1044" y1="406" x2="1102" y2="464" opacity="0.81"></line><line x1="1102" y1="406" x2="1160" y2="464" opacity="0.36"></line><line x1="1160" y1="406" x2="1218" y2="464" opacity="0.48"></line><line x1="1218" y1="406" x2="1276" y2="464" opacity="0.58"></line><line x1="1276" y1="406" x2="1334" y2="464" opacity="0.69"></line><line x1="1392" y1="406" x2="1334" y2="464" opacity="0.83"></line><line x1="1450" y1="406" x2="1392" y2="464" opacity="0.11"></line><line x1="58" y1="464" x2="0" y2="522" opacity="0.74"></line><line x1="58" y1="464" x2="116" y2="522" opacity="0.21"></line><line x1="116" y1="464" x2="174" y2="522" opacity="0.54"></line><line x1="174" y1="464" x2="232" y2="522" opacity="0.10"></line><line x1="232" y1="464" x2="290" y2="522" opacity="0.43"></line><line x1="290" y1="464" x2="348" y2="522" opacity="0.65"></line><line x1="348" y1="464" x2="406" y2="522" opacity="0.70"></line><line x1="406" y1="464" x2="464" y2="522" opacity="0.92"></line><line x1="464" y1="464" x2="522" y2="522" opacity="0.35"></line><line x1="522" y1="464" x2="580" y2="522" opacity="0.89"></line><line x1="638" y1="464" x2="580" y2="522" opacity="0.21"></line><line x1="638" y1="464" x2="696" y2="522" opacity="0.38"></line><line x1="696" y1="464" x2="754" y2="522" opacity="0.75"></line><line x1="754" y1="464" x2="812" y2="522" opacity="0.22"></line><line x1="870" y1="464" x2="812" y2="522" opacity="0.11"></line><line x1="870" y1="464" x2="928" y2="522" opacity="0.56"></line><line x1="986" y1="464" x2="928" y2="522" opacity="0.85"></line><line x1="986" y1="464" x2="1044" y2="522" opacity="0.63"></line><line x1="1102" y1="464" x2="1044" y2="522" opacity="0.58"></line><line x1="1102" y1="464" x2="1160" y2="522" opacity="0.29"></line><line x1="1160" y1="464" x2="1218" y2="522" opacity="0.59"></line><line x1="1218" y1="464" x2="1276" y2="522" opacity="0.70"></line><line x1="1276" y1="464" x2="1334" y2="522" opacity="0.10"></line><line x1="1334" y1="464" x2="1392" y2="522" opacity="0.86"></line><line x1="1450" y1="464" x2="1392" y2="522" opacity="0.96"></line><line x1="58" y1="522" x2="0" y2="580" opacity="0.88"></line><line x1="58" y1="522" x2="116" y2="580" opacity="0.53"></line><line x1="116" y1="522" x2="174" y2="580" opacity="0.48"></line><line x1="232" y1="522" x2="174" y2="580" opacity="0.15"></line><line x1="232" y1="522" x2="290" y2="580" opacity="0.65"></line><line x1="290" y1="522" x2="348" y2="580" opacity="0.29"></line><line x1="406" y1="522" x2="348" y2="580" opacity="0.34"></line><line x1="464" y1="522" x2="406" y2="580" opacity="0.86"></line><line x1="464" y1="522" x2="522" y2="580" opacity="0.58"></line><line x1="522" y1="522" x2="580" y2="580" opacity="0.09"></line><line x1="580" y1="522" x2="638" y2="580" opacity="0.32"></line><line x1="638" y1="522" x2="696" y2="580" opacity="0.69"></line><line x1="754" y1="522" x2="696" y2="580" opacity="0.19"></line><line x1="754" y1="522" x2="812" y2="580" opacity="0.97"></line><line x1="870" y1="522" x2="812" y2="580" opacity="0.43"></line><line x1="870" y1="522" x2="928" y2="580" opacity="1.00"></line><line x1="928" y1="522" x2="986" y2="580" opacity="0.55"></line><line x1="1044" y1="522" x2="986" y2="580" opacity="0.32"></line><line x1="1102" y1="522" x2="1044" y2="580" opacity="0.95"></line><line x1="1102" y1="522" x2="1160" y2="580" opacity="0.93"></line><line x1="1160" y1="522" x2="1218" y2="580" opacity="0.25"></line><line x1="1276" y1="522" x2="1218" y2="580" opacity="0.28"></line><line x1="1276" y1="522" x2="1334" y2="580" opacity="0.57"></line><line x1="1334" y1="522" x2="1392" y2="580" opacity="0.24"></line><line x1="1450" y1="522" x2="1392" y2="580" opacity="0.39"></line><line x1="0" y1="580" x2="58" y2="638" opacity="0.35"></line><line x1="58" y1="580" x2="116" y2="638" opacity="0.49"></line><line x1="116" y1="580" x2="174" y2="638" opacity="0.12"></line><line x1="174" y1="580" x2="232" y2="638" opacity="0.38"></line><line x1="290" y1="580" x2="232" y2="638" opacity="0.08"></line><line x1="348" y1="580" x2="290" y2="638" opacity="1.00"></line><line x1="406" y1="580" x2="348" y2="638" opacity="0.38"></line><line x1="464" y1="580" x2="406" y2="638" opacity="0.82"></line><line x1="464" y1="580" x2="522" y2="638" opacity="0.62"></line><line x1="522" y1="580" x2="580" y2="638" opacity="0.76"></line><line x1="638" y1="580" x2="580" y2="638" opacity="0.15"></line><line x1="638" y1="580" x2="696" y2="638" opacity="0.59"></line><line x1="754" y1="580" x2="696" y2="638" opacity="0.34"></line><line x1="754" y1="580" x2="812" y2="638" opacity="0.27"></line><line x1="812" y1="580" x2="870" y2="638" opacity="0.68"></line><line x1="870" y1="580" x2="928" y2="638" opacity="0.24"></line><line x1="928" y1="580" x2="986" y2="638" opacity="0.48"></line><line x1="1044" y1="580" x2="986" y2="638" opacity="0.09"></line><line x1="1102" y1="580" x2="1044" y2="638" opacity="0.58"></line><line x1="1102" y1="580" x2="1160" y2="638" opacity="0.35"></line><line x1="1160" y1="580" x2="1218" y2="638" opacity="0.93"></line><line x1="1218" y1="580" x2="1276" y2="638" opacity="0.69"></line><line x1="1276" y1="580" x2="1334" y2="638" opacity="0.54"></line><line x1="1334" y1="580" x2="1392" y2="638" opacity="0.66"></line><line x1="1392" y1="580" x2="1450" y2="638" opacity="0.73"></line><line x1="0" y1="638" x2="58" y2="696" opacity="0.24"></line><line x1="58" y1="638" x2="116" y2="696" opacity="0.85"></line><line x1="116" y1="638" x2="174" y2="696" opacity="0.87"></line><line x1="174" y1="638" x2="232" y2="696" opacity="0.70"></line><line x1="232" y1="638" x2="290" y2="696" opacity="0.44"></line><line x1="290" y1="638" x2="348" y2="696" opacity="0.33"></line><line x1="406" y1="638" x2="348" y2="696" opacity="0.64"></line><line x1="406" y1="638" x2="464" y2="696" opacity="0.14"></line><line x1="464" y1="638" x2="522" y2="696" opacity="0.55"></line><line x1="522" y1="638" x2="580" y2="696" opacity="0.22"></line><line x1="638" y1="638" x2="580" y2="696" opacity="0.24"></line><line x1="696" y1="638" x2="638" y2="696" opacity="0.52"></line><line x1="696" y1="638" x2="754" y2="696" opacity="0.39"></line><line x1="754" y1="638" x2="812" y2="696" opacity="0.23"></line><line x1="812" y1="638" x2="870" y2="696" opacity="0.88"></line><line x1="870" y1="638" x2="928" y2="696" opacity="0.26"></line><line x1="986" y1="638" x2="928" y2="696" opacity="0.63"></line><line x1="986" y1="638" x2="1044" y2="696" opacity="0.94"></line><line x1="1044" y1="638" x2="1102" y2="696" opacity="0.84"></line><line x1="1102" y1="638" x2="1160" y2="696" opacity="0.87"></line><line x1="1160" y1="638" x2="1218" y2="696" opacity="0.66"></line><line x1="1276" y1="638" x2="1218" y2="696" opacity="0.26"></line><line x1="1276" y1="638" x2="1334" y2="696" opacity="0.23"></line><line x1="1392" y1="638" x2="1334" y2="696" opacity="0.95"></line><line x1="1450" y1="638" x2="1392" y2="696" opacity="0.24"></line><line x1="0" y1="696" x2="58" y2="754" opacity="0.11"></line><line x1="58" y1="696" x2="116" y2="754" opacity="0.24"></line><line x1="174" y1="696" x2="116" y2="754" opacity="0.11"></line><line x1="232" y1="696" x2="174" y2="754" opacity="0.65"></line><line x1="232" y1="696" x2="290" y2="754" opacity="0.15"></line><line x1="290" y1="696" x2="348" y2="754" opacity="0.54"></line><line x1="406" y1="696" x2="348" y2="754" opacity="0.74"></line><line x1="406" y1="696" x2="464" y2="754" opacity="0.45"></line><line x1="464" y1="696" x2="522" y2="754" opacity="0.76"></line><line x1="522" y1="696" x2="580" y2="754" opacity="0.18"></line><line x1="580" y1="696" x2="638" y2="754" opacity="0.85"></line><line x1="638" y1="696" x2="696" y2="754" opacity="0.15"></line><line x1="696" y1="696" x2="754" y2="754" opacity="0.42"></line><line x1="754" y1="696" x2="812" y2="754" opacity="0.10"></line><line x1="812" y1="696" x2="870" y2="754" opacity="0.92"></line><line x1="870" y1="696" x2="928" y2="754" opacity="0.64"></line><line x1="928" y1="696" x2="986" y2="754" opacity="0.58"></line><line x1="986" y1="696" x2="1044" y2="754" opacity="0.24"></line><line x1="1102" y1="696" x2="1044" y2="754" opacity="0.71"></line><line x1="1102" y1="696" x2="1160" y2="754" opacity="0.45"></line><line x1="1218" y1="696" x2="1160" y2="754" opacity="0.64"></line><line x1="1276" y1="696" x2="1218" y2="754" opacity="0.91"></line><line x1="1334" y1="696" x2="1276" y2="754" opacity="0.09"></line><line x1="1334" y1="696" x2="1392" y2="754" opacity="0.08"></line><line x1="1450" y1="696" x2="1392" y2="754" opacity="0.16"></line><line x1="0" y1="754" x2="58" y2="812" opacity="0.93"></line><line x1="58" y1="754" x2="116" y2="812" opacity="0.98"></line><line x1="116" y1="754" x2="174" y2="812" opacity="0.67"></line><line x1="174" y1="754" x2="232" y2="812" opacity="0.24"></line><line x1="232" y1="754" x2="290" y2="812" opacity="0.95"></line><line x1="290" y1="754" x2="348" y2="812" opacity="0.07"></line><line x1="406" y1="754" x2="348" y2="812" opacity="0.97"></line><line x1="406" y1="754" x2="464" y2="812" opacity="0.25"></line><line x1="522" y1="754" x2="464" y2="812" opacity="0.49"></line><line x1="580" y1="754" x2="522" y2="812" opacity="0.82"></line><line x1="580" y1="754" x2="638" y2="812" opacity="0.82"></line><line x1="638" y1="754" x2="696" y2="812" opacity="0.68"></line><line x1="696" y1="754" x2="754" y2="812" opacity="0.48"></line><line x1="754" y1="754" x2="812" y2="812" opacity="0.30"></line><line x1="812" y1="754" x2="870" y2="812" opacity="0.10"></line><line x1="870" y1="754" x2="928" y2="812" opacity="0.50"></line><line x1="986" y1="754" x2="928" y2="812" opacity="0.50"></line><line x1="986" y1="754" x2="1044" y2="812" opacity="0.07"></line><line x1="1102" y1="754" x2="1044" y2="812" opacity="0.36"></line><line x1="1160" y1="754" x2="1102" y2="812" opacity="0.39"></line><line x1="1218" y1="754" x2="1160" y2="812" opacity="0.63"></line><line x1="1218" y1="754" x2="1276" y2="812" opacity="0.63"></line><line x1="1276" y1="754" x2="1334" y2="812" opacity="1.00"></line><line x1="1392" y1="754" x2="1334" y2="812" opacity="0.98"></line><line x1="1392" y1="754" x2="1450" y2="812" opacity="0.53"></line></g></svg>