<?xml version="1.0" standalone="no"?>
<!DOCTYPE svg PUBLIC "-//W3C//DTD SVG 20010904//EN"
 "http://www.w3.org/TR/2001/REC-SVG-20010904/DTD/svg10.dtd">
<svg version="1.0" xmlns="http://www.w3.org/2000/svg"
 width="1740.000000pt" height="1748.000000pt" viewBox="0 0 1740.000000 1748.000000"
 preserveAspectRatio="xMidYMid meet">

<g transform="translate(0.000000,1748.000000) scale(0.100000,-0.100000)"
fill="#000000" stroke="none">
<path d="M2850 17311 c0 -5 -53 -14 -117 -20 -65 -6 -145 -16 -178 -22 -177
-32 -317 -63 -336 -75 -7 -4 -29 -11 -48 -15 -33 -7 -106 -30 -156 -50 -168
-66 -294 -127 -442 -210 -195 -111 -380 -255 -558 -433 -83 -83 -162 -164
-175 -181 -59 -71 -100 -123 -134 -172 -20 -29 -52 -75 -71 -103 -19 -27 -35
-52 -35 -54 0 -3 -13 -25 -30 -49 -16 -24 -34 -55 -40 -68 -5 -13 -14 -32 -20
-41 -5 -10 -14 -26 -20 -35 -10 -20 -52 -107 -77 -163 -9 -19 -22 -47 -30 -62
-7 -14 -13 -31 -13 -38 0 -7 -7 -26 -15 -43 -21 -48 -46 -118 -54 -158 -4 -19
-11 -41 -15 -48 -9 -14 -31 -104 -47 -191 -6 -30 -17 -80 -25 -111 -8 -30 -14
-78 -14 -105 0 -27 -7 -89 -15 -139 -19 -116 -19 -371 0 -495 8 -52 15 -117
15 -144 0 -27 6 -72 14 -100 8 -28 19 -76 25 -106 16 -85 38 -177 47 -191 4
-7 11 -29 15 -48 9 -43 35 -123 55 -168 8 -18 20 -48 27 -65 178 -434 456
-811 821 -1112 54 -44 109 -88 121 -96 13 -8 61 -40 107 -71 180 -121 351
-210 563 -291 133 -51 156 -59 200 -68 22 -5 54 -14 70 -20 17 -6 50 -16 75
-20 25 -5 65 -13 90 -19 139 -30 256 -43 535 -56 372 -19 528 -36 647 -71 26
-8 54 -14 62 -14 33 0 307 -87 396 -126 19 -8 44 -19 55 -24 66 -29 219 -105
270 -135 33 -19 71 -40 85 -47 14 -7 41 -25 61 -40 20 -15 40 -28 43 -28 11 0
227 -166 280 -215 6 -6 46 -41 89 -79 43 -39 110 -106 149 -150 39 -45 82 -94
97 -111 26 -30 83 -104 111 -145 8 -12 29 -41 46 -64 17 -22 44 -63 60 -90 52
-86 94 -160 109 -191 9 -16 19 -37 24 -45 16 -28 78 -165 95 -210 10 -25 24
-58 31 -75 17 -39 44 -121 55 -165 4 -19 13 -48 18 -65 16 -47 32 -114 47
-195 8 -41 19 -91 25 -110 5 -19 10 -57 10 -85 0 -27 7 -93 15 -145 8 -52 15
-158 15 -235 0 -77 -7 -183 -15 -235 -8 -52 -15 -118 -15 -145 0 -28 -5 -66
-10 -85 -6 -19 -17 -69 -25 -110 -15 -81 -31 -148 -47 -195 -5 -16 -14 -46
-18 -65 -9 -37 -29 -97 -56 -165 -9 -22 -23 -58 -32 -80 -22 -56 -126 -269
-165 -336 -51 -89 -90 -154 -96 -159 -3 -3 -20 -25 -36 -50 -17 -25 -34 -49
-38 -55 -4 -5 -24 -33 -45 -60 -41 -56 -57 -74 -190 -222 -52 -57 -100 -106
-107 -110 -7 -5 -33 -26 -57 -48 -126 -117 -228 -193 -448 -334 -61 -39 -241
-130 -335 -171 -27 -11 -59 -25 -70 -30 -98 -45 -413 -135 -525 -150 -30 -4
-73 -12 -95 -18 -42 -12 -221 -25 -570 -42 -200 -10 -295 -21 -465 -57 -81
-17 -197 -47 -245 -64 -16 -6 -39 -13 -50 -16 -20 -5 -163 -59 -240 -91 -116
-48 -406 -211 -490 -276 -22 -17 -47 -35 -56 -41 -78 -48 -293 -243 -430 -391
-59 -64 -216 -267 -254 -330 -16 -27 -50 -83 -75 -124 -54 -89 -119 -221 -175
-355 -8 -19 -22 -50 -31 -68 -8 -19 -19 -49 -24 -68 -4 -19 -14 -50 -20 -69
-26 -78 -32 -97 -46 -155 -8 -33 -20 -85 -25 -115 -6 -30 -17 -78 -25 -106 -8
-28 -14 -73 -14 -100 0 -27 -7 -92 -15 -144 -19 -123 -19 -368 0 -494 8 -55
15 -120 15 -144 0 -25 6 -71 14 -101 8 -31 19 -81 25 -111 16 -87 38 -177 47
-191 4 -7 11 -29 15 -48 8 -40 33 -110 54 -158 8 -17 15 -36 15 -43 0 -7 6
-24 13 -38 8 -15 21 -43 30 -62 28 -63 68 -145 77 -160 5 -8 11 -22 14 -30 13
-33 117 -203 166 -270 19 -26 42 -58 50 -70 18 -26 57 -77 108 -140 70 -87
308 -317 412 -399 113 -89 262 -191 350 -241 103 -56 330 -165 380 -181 14 -4
57 -20 95 -34 39 -15 86 -30 105 -35 19 -4 49 -13 65 -18 37 -13 114 -31 175
-43 25 -4 79 -15 120 -23 41 -8 135 -20 208 -27 72 -6 132 -15 132 -20 0 -5
61 -9 135 -9 74 0 135 4 135 9 0 5 53 14 118 20 64 6 131 13 147 15 66 7 288
55 375 82 85 26 195 62 220 72 14 5 45 18 70 27 152 60 431 213 571 313 328
235 618 559 826 921 18 31 36 63 39 71 3 8 10 22 15 30 5 8 14 26 19 40 6 14
24 52 40 85 17 33 30 65 30 71 0 5 9 27 20 49 11 22 20 45 20 51 0 6 7 25 15
40 8 16 15 38 15 49 0 11 7 29 15 39 8 11 15 33 15 48 0 16 6 41 14 56 7 15
16 47 20 72 4 25 13 63 21 85 8 22 14 59 15 82 0 23 5 54 11 70 15 38 26 221
44 727 9 236 20 449 26 473 5 25 14 104 19 176 5 73 14 148 19 167 6 19 11 60
11 90 0 30 5 73 11 95 5 22 16 83 24 135 16 105 31 182 47 250 6 25 14 70 18
101 4 30 12 64 17 75 6 10 13 43 17 73 4 30 12 63 18 74 5 11 14 43 18 71 4
28 12 65 18 81 6 17 15 50 22 75 6 25 17 68 25 95 8 28 19 70 26 95 7 25 18
59 25 77 8 17 14 38 14 47 0 8 6 30 14 48 7 18 24 67 36 108 12 41 27 84 33
95 6 11 14 33 18 50 10 39 36 112 54 152 8 17 15 37 15 45 0 7 7 22 15 32 8
11 15 28 15 39 0 10 6 31 14 45 7 15 24 52 36 82 31 76 48 115 64 152 8 18 24
56 36 83 39 91 209 441 240 495 5 8 11 22 14 30 3 8 22 42 41 75 20 33 42 74
51 90 23 47 71 130 101 177 15 24 33 54 40 68 17 33 32 57 66 101 15 20 27 40
27 43 0 3 15 28 33 54 34 51 41 62 83 132 15 25 48 73 73 107 25 34 69 94 96
133 103 146 342 452 450 575 33 37 94 107 135 154 236 270 664 680 959 916
271 218 664 505 741 542 8 4 55 34 105 67 49 34 97 65 105 69 8 4 33 19 55 32
22 14 49 29 60 35 11 6 34 19 50 30 17 10 57 33 90 50 33 18 65 35 70 40 41
31 519 271 660 330 33 14 118 50 150 65 17 7 55 23 85 35 30 11 69 27 85 34
74 33 106 46 116 46 6 0 25 7 42 15 37 16 108 42 152 55 17 5 89 28 160 53 72
24 157 52 190 62 133 39 153 45 220 64 157 44 287 75 465 111 30 7 78 18 106
26 28 8 64 14 81 14 16 0 52 6 79 14 27 8 78 17 114 21 36 3 79 11 96 16 17 5
69 14 115 18 46 5 127 14 179 20 269 33 378 42 630 51 557 20 766 32 821 46
31 8 73 14 92 14 20 0 48 5 64 11 15 6 53 15 83 20 30 6 73 16 95 24 22 7 74
23 115 36 41 12 82 26 90 30 8 3 42 17 75 29 222 83 459 217 680 384 133 102
359 315 438 415 29 36 62 77 75 91 21 23 104 139 127 178 6 9 24 37 40 62 38
58 47 73 85 145 34 65 45 86 60 113 6 9 13 24 16 32 3 8 11 29 19 45 8 17 23
55 35 85 12 30 28 68 36 83 8 16 14 36 14 45 0 9 7 31 16 47 8 17 19 48 24 70
4 22 13 54 18 70 17 49 33 116 43 180 5 33 14 74 20 90 5 17 14 77 20 135 5
58 13 139 19 180 5 41 9 118 10 170 1 171 -51 577 -86 673 -8 20 -14 48 -14
62 0 13 -6 39 -14 57 -7 18 -25 69 -40 113 -40 125 -57 169 -67 179 -5 6 -9
16 -9 23 0 20 -97 217 -158 322 -124 212 -269 399 -452 581 -296 296 -626 507
-1015 650 -33 12 -75 29 -93 36 -18 8 -40 14 -48 14 -9 0 -37 7 -63 15 -67 21
-154 42 -251 61 -96 19 -92 19 -252 35 -65 6 -118 15 -118 20 0 12 -297 12
-302 0 -2 -6 -61 -15 -133 -21 -71 -6 -157 -18 -190 -25 -33 -8 -80 -17 -105
-20 -46 -7 -119 -25 -200 -51 -25 -8 -52 -14 -60 -14 -8 0 -27 -6 -42 -14 -15
-8 -42 -17 -60 -21 -18 -4 -49 -14 -68 -23 -19 -8 -51 -22 -70 -30 -189 -80
-325 -152 -459 -241 -46 -31 -101 -67 -122 -81 -157 -105 -421 -360 -582 -564
-51 -63 -182 -258 -208 -308 -81 -155 -129 -252 -129 -263 0 -7 -7 -18 -15
-25 -8 -7 -15 -20 -15 -29 -1 -9 -9 -34 -20 -56 -11 -22 -20 -47 -20 -55 0 -8
-7 -24 -15 -34 -8 -11 -15 -31 -15 -44 0 -13 -6 -33 -12 -45 -13 -23 -32 -89
-50 -172 -6 -27 -17 -67 -24 -88 -8 -20 -14 -54 -14 -73 0 -20 -6 -62 -14 -93
-14 -53 -20 -136 -47 -621 -6 -107 -17 -223 -25 -257 -8 -34 -14 -78 -14 -97
0 -20 -6 -53 -14 -73 -7 -21 -18 -60 -24 -88 -17 -81 -34 -138 -48 -167 -8
-14 -14 -37 -14 -50 0 -13 -7 -33 -15 -44 -8 -10 -15 -26 -15 -34 0 -8 -9 -33
-20 -55 -11 -22 -19 -45 -20 -52 0 -10 -19 -52 -42 -93 -4 -8 -11 -22 -14 -30
-7 -18 -51 -108 -64 -130 -5 -8 -25 -44 -46 -80 -92 -160 -207 -316 -360 -490
-92 -105 -132 -144 -277 -269 -99 -85 -316 -241 -336 -241 -4 0 -13 -6 -19
-12 -14 -14 -95 -60 -177 -101 -108 -54 -246 -117 -256 -117 -6 0 -25 -7 -42
-15 -45 -20 -116 -45 -157 -55 -19 -4 -48 -13 -65 -19 -74 -25 -326 -77 -420
-86 -33 -3 -91 -10 -130 -15 -108 -15 -387 -12 -499 5 -55 8 -115 15 -134 15
-19 0 -64 6 -101 14 -36 8 -86 19 -111 25 -25 5 -79 19 -120 31 -41 11 -91 25
-110 30 -19 4 -66 20 -105 35 -38 14 -79 29 -90 32 -11 3 -29 12 -40 20 -11 7
-25 13 -33 13 -14 0 -247 113 -310 151 -201 120 -411 280 -570 434 -94 90
-255 276 -316 363 -99 143 -130 189 -154 235 -15 27 -44 78 -64 115 -21 37
-40 74 -44 82 -9 22 -43 99 -61 140 -9 19 -22 47 -30 62 -7 14 -13 34 -13 43
0 9 -6 29 -14 43 -18 37 -56 153 -56 173 0 9 -7 30 -15 45 -8 16 -15 43 -15
60 0 17 -7 48 -15 67 -8 20 -15 51 -15 70 0 18 -7 60 -16 92 -10 39 -23 202
-39 465 -12 223 -28 418 -34 433 -6 16 -11 47 -11 70 -1 23 -7 60 -15 82 -8
22 -17 60 -21 85 -4 25 -13 57 -20 72 -8 15 -14 40 -14 56 0 15 -7 37 -15 48
-8 10 -15 31 -15 45 0 14 -7 34 -15 45 -8 10 -15 26 -15 34 0 9 -9 33 -20 55
-11 22 -20 43 -20 49 0 5 -14 39 -31 75 -17 36 -35 75 -40 86 -5 11 -13 27
-18 35 -5 8 -12 22 -15 30 -9 24 -65 121 -97 168 -16 24 -29 45 -29 48 0 2
-17 28 -37 57 -20 28 -46 66 -57 82 -12 17 -23 32 -27 35 -3 3 -31 39 -63 80
-155 199 -459 470 -675 602 -29 18 -65 41 -80 50 -41 26 -321 164 -371 183
-25 9 -58 23 -75 31 -16 7 -43 16 -59 20 -16 4 -41 13 -55 20 -14 8 -36 14
-49 14 -13 0 -33 5 -44 11 -23 12 -97 31 -213 53 -141 28 -192 36 -307 47 -65
6 -118 15 -118 20 0 5 -67 9 -150 9 -82 0 -150 -4 -150 -9z"/>
<path d="M11670 9469 c-1643 -111 -3102 -1089 -3825 -2564 -277 -565 -423
-1116 -464 -1750 -75 -1130 284 -2260 1004 -3160 1131 -1413 2989 -2030 4750
-1575 999 258 1894 858 2523 1693 352 468 626 1034 772 1599 198 769 198 1562
-1 2328 -231 889 -747 1718 -1439 2314 -927 797 -2113 1196 -3320 1115z m735
-1033 c275 -37 468 -80 710 -161 1244 -414 2181 -1506 2394 -2790 39 -235 46
-327 46 -610 0 -439 -48 -744 -180 -1140 -414 -1244 -1506 -2181 -2790 -2394
-235 -39 -327 -46 -610 -46 -439 0 -744 48 -1140 180 -1159 385 -2057 1361
-2344 2545 -106 438 -129 927 -65 1370 159 1102 816 2058 1798 2616 424 241
923 394 1446 444 135 12 603 4 735 -14z"/>
</g>
</svg>
